<?xml version="1.0" encoding="utf-8"?>
<!-- Generator: Adobe Illustrator 24.0.0, SVG Export Plug-In . SVG Version: 6.00 Build 0)  -->
<svg version="1.1" id="Capa_1" xmlns="http://www.w3.org/2000/svg" xmlns:xlink="http://www.w3.org/1999/xlink" x="0px" y="0px"
	 viewBox="0 0 210.1 80.6" style="enable-background:new 0 0 210.1 80.6;" xml:space="preserve">
<style type="text/css">
	.st0{fill:#828281;}
	.st1{fill:#00ADC1;}
</style>
<g id="Capa_1_1_">
</g>
<g>
	<path class="st0" d="M113.1,24.6v2.1c-0.4,0.1-0.8,0.1-1.1,0.1c-0.9,0-1.5-0.2-1.9-0.6c-0.4-0.4-0.6-1-0.6-1.7
		c0-0.8,0.2-1.3,0.7-1.7c0.4-0.4,1.1-0.6,1.9-0.6c0.4,0,0.7,0,1,0.1v0.8c-0.3-0.1-0.6-0.1-0.9-0.1c-0.4,0-0.7,0.1-0.9,0.2
		c-0.2,0.1-0.4,0.3-0.5,0.5c-0.1,0.2-0.2,0.5-0.2,0.9c0,0.5,0.1,0.9,0.4,1.1c0.2,0.2,0.6,0.4,1.1,0.4c0.1,0,0.2,0,0.3,0v-1.4H113.1z
		"/>
	<path class="st0" d="M114.8,26.6c-0.3-0.2-0.6-0.4-0.7-0.8c-0.2-0.3-0.3-0.8-0.3-1.3c0-0.5,0.1-0.9,0.3-1.3
		c0.2-0.3,0.4-0.6,0.7-0.8c0.3-0.2,0.7-0.3,1.1-0.3c0.4,0,0.8,0.1,1.1,0.3c0.3,0.2,0.6,0.4,0.7,0.8c0.2,0.3,0.3,0.8,0.3,1.3
		c0,0.5-0.1,0.9-0.3,1.3c-0.2,0.3-0.4,0.6-0.7,0.8c-0.3,0.2-0.7,0.3-1.1,0.3C115.4,26.9,115.1,26.8,114.8,26.6 M116.7,25.7
		c0.2-0.2,0.3-0.6,0.3-1.1c0-0.5-0.1-0.9-0.3-1.2c-0.2-0.2-0.5-0.4-0.8-0.4c-0.4,0-0.6,0.1-0.8,0.4c-0.2,0.2-0.3,0.6-0.3,1.1
		c0,0.5,0.1,0.9,0.3,1.2c0.2,0.2,0.5,0.4,0.8,0.4C116.2,26.1,116.5,26,116.7,25.7"/>
	<path class="st0" d="M121.9,24.9c0.1,0.2,0.2,0.4,0.2,0.7c0,0.3-0.1,0.5-0.2,0.7c-0.1,0.2-0.4,0.3-0.7,0.4
		c-0.3,0.1-0.8,0.2-1.3,0.2c-0.2,0-0.4,0-0.6,0c-0.2,0-0.4,0-0.6-0.1v-4.4c0.2,0,0.4-0.1,0.7-0.1c0.3,0,0.5,0,0.7,0
		c0.7,0,1.2,0.1,1.5,0.3c0.3,0.2,0.5,0.5,0.5,0.9c0,0.2-0.1,0.4-0.2,0.6c-0.1,0.2-0.3,0.3-0.5,0.4C121.6,24.6,121.8,24.7,121.9,24.9
		 M119.6,23v1.1h0.6c0.3,0,0.5,0,0.6-0.1c0.1-0.1,0.2-0.2,0.2-0.4c0-0.1,0-0.2-0.1-0.3c-0.1-0.1-0.1-0.1-0.3-0.2
		c-0.1,0-0.3-0.1-0.5-0.1C120,23,119.8,23,119.6,23 M120.8,26.1c0.2,0,0.3-0.1,0.3-0.2c0.1-0.1,0.1-0.2,0.1-0.4
		c0-0.2-0.1-0.4-0.2-0.5c-0.1-0.1-0.4-0.1-0.7-0.1h-0.7v1.2c0.2,0,0.3,0,0.6,0C120.5,26.2,120.7,26.1,120.8,26.1"/>
	<rect x="122.7" y="22.3" class="st0" width="1" height="4.5"/>
	<polygon class="st0" points="125.5,26 127.7,26 127.7,26.8 124.5,26.8 124.5,22.3 127.7,22.3 127.7,23.1 125.5,23.1 125.5,24.1 
		127.4,24.1 127.4,24.9 125.5,24.9 	"/>
	<path class="st0" d="M131,26.8l-1.2-1.7h-0.1c-0.1,0-0.3,0-0.5,0v1.7h-1v-4.4c0.2,0,0.4-0.1,0.7-0.1c0.2,0,0.5,0,0.7,0
		c0.7,0,1.1,0.1,1.5,0.4c0.3,0.2,0.5,0.6,0.5,1.1c0,0.3-0.1,0.6-0.2,0.8c-0.2,0.2-0.4,0.4-0.7,0.5l1.3,1.8H131z M129.3,24.4
		c0.2,0,0.3,0,0.5,0c0.3,0,0.6-0.1,0.7-0.2c0.2-0.1,0.2-0.3,0.2-0.6c0-0.2-0.1-0.4-0.2-0.5c-0.1-0.1-0.4-0.2-0.7-0.2
		c-0.2,0-0.4,0-0.5,0V24.4z"/>
	<polygon class="st0" points="135.5,22.3 136.4,22.3 136.4,26.8 135.4,26.8 133.5,23.8 133.5,26.8 132.5,26.8 132.5,22.3 
		133.5,22.3 135.5,25.3 	"/>
	<path class="st0" d="M138.1,26.6c-0.3-0.2-0.6-0.4-0.7-0.8c-0.2-0.3-0.3-0.8-0.3-1.3c0-0.5,0.1-0.9,0.3-1.3
		c0.2-0.3,0.4-0.6,0.7-0.8c0.3-0.2,0.7-0.3,1.1-0.3c0.4,0,0.8,0.1,1.1,0.3c0.3,0.2,0.6,0.4,0.7,0.8c0.2,0.3,0.3,0.8,0.3,1.3
		c0,0.5-0.1,0.9-0.3,1.3c-0.2,0.3-0.4,0.6-0.7,0.8c-0.3,0.2-0.7,0.3-1.1,0.3C138.8,26.9,138.4,26.8,138.1,26.6 M140,25.7
		c0.2-0.2,0.3-0.6,0.3-1.1c0-0.5-0.1-0.9-0.3-1.2c-0.2-0.2-0.5-0.4-0.8-0.4c-0.4,0-0.6,0.1-0.8,0.4c-0.2,0.2-0.3,0.6-0.3,1.1
		c0,0.5,0.1,0.9,0.3,1.2c0.2,0.2,0.5,0.4,0.8,0.4C139.6,26.1,139.9,26,140,25.7"/>
	<path class="st0" d="M143.5,26.8v-4.4c0.2,0,0.4-0.1,0.7-0.1c0.3,0,0.5,0,0.7,0c0.8,0,1.4,0.2,1.9,0.6c0.4,0.4,0.6,1,0.6,1.7
		c0,0.5-0.1,1-0.3,1.3c-0.2,0.3-0.5,0.6-0.9,0.7c-0.4,0.2-0.9,0.2-1.5,0.2C144.3,26.9,143.9,26.8,143.5,26.8 M145.8,25.9
		c0.2-0.1,0.4-0.3,0.5-0.5c0.1-0.2,0.2-0.5,0.2-0.9c0-0.4-0.1-0.6-0.2-0.9c-0.1-0.2-0.3-0.4-0.5-0.5c-0.2-0.1-0.5-0.2-0.8-0.2
		c-0.2,0-0.3,0-0.5,0V26c0.1,0,0.3,0,0.5,0C145.3,26.1,145.6,26,145.8,25.9"/>
	<polygon class="st0" points="149.1,26 151.3,26 151.3,26.8 148.1,26.8 148.1,22.3 151.3,22.3 151.3,23.1 149.1,23.1 149.1,24.1 
		151,24.1 151,24.9 149.1,24.9 	"/>
	<polygon class="st0" points="153.5,26.8 153.5,22.3 154.5,22.3 154.5,26 156.5,26 156.5,26.8 	"/>
	<path class="st0" d="M160,26.8l-0.4-1.2h-1.7l-0.4,1.2h-1l1.5-4.5h1.4l1.5,4.5H160z M158.2,24.8h1.2l-0.6-1.9L158.2,24.8z"/>
	<path class="st0" d="M109.6,29.4c0.5-0.1,0.9-0.1,1.4-0.1c0.7,0,1.2,0.1,1.5,0.4c0.3,0.3,0.5,0.7,0.5,1.2c0,0.5-0.2,0.9-0.5,1.2
		c-0.3,0.3-0.8,0.4-1.5,0.4c-0.1,0-0.2,0-0.4,0v1.3h-1V29.4z M111.7,31.6c0.2-0.1,0.2-0.4,0.2-0.7c0-0.3-0.1-0.5-0.2-0.7
		c-0.2-0.1-0.4-0.2-0.7-0.2c-0.2,0-0.3,0-0.5,0v1.7c0.1,0,0.3,0,0.4,0C111.3,31.8,111.6,31.7,111.7,31.6"/>
	<path class="st0" d="M116.2,33.8l-1.2-1.7H115c-0.1,0-0.3,0-0.5,0v1.7h-1v-4.4c0.2,0,0.4-0.1,0.7-0.1c0.2,0,0.5,0,0.7,0
		c0.7,0,1.1,0.1,1.5,0.4c0.3,0.2,0.5,0.6,0.5,1.1c0,0.3-0.1,0.6-0.2,0.8c-0.2,0.2-0.4,0.4-0.7,0.5l1.3,1.8H116.2z M114.6,31.4
		c0.2,0,0.3,0,0.5,0c0.3,0,0.6-0.1,0.7-0.2c0.2-0.1,0.2-0.3,0.2-0.6c0-0.2-0.1-0.4-0.2-0.5c-0.1-0.1-0.4-0.2-0.7-0.2
		c-0.2,0-0.4,0-0.5,0V31.4z"/>
	<path class="st0" d="M118.4,33.6c-0.3-0.2-0.6-0.4-0.7-0.8c-0.2-0.3-0.3-0.8-0.3-1.3c0-0.5,0.1-0.9,0.3-1.3
		c0.2-0.3,0.4-0.6,0.7-0.8c0.3-0.2,0.7-0.3,1.1-0.3c0.4,0,0.8,0.1,1.1,0.3c0.3,0.2,0.6,0.4,0.7,0.8c0.2,0.3,0.3,0.8,0.3,1.3
		c0,0.5-0.1,0.9-0.3,1.3c-0.2,0.3-0.4,0.6-0.7,0.8c-0.3,0.2-0.7,0.3-1.1,0.3C119.1,33.9,118.7,33.8,118.4,33.6 M120.4,32.7
		c0.2-0.2,0.3-0.6,0.3-1.1c0-0.5-0.1-0.9-0.3-1.2c-0.2-0.2-0.5-0.4-0.8-0.4c-0.4,0-0.6,0.1-0.8,0.4c-0.2,0.2-0.3,0.6-0.3,1.1
		c0,0.5,0.1,0.9,0.3,1.2c0.2,0.2,0.5,0.4,0.8,0.4C119.9,33.1,120.2,33,120.4,32.7"/>
	<polygon class="st0" points="125.2,29.3 126.1,29.3 124.7,33.8 123.2,33.8 121.8,29.3 122.8,29.3 124,33.1 	"/>
	<rect x="126.6" y="29.3" class="st0" width="1" height="4.5"/>
	<polygon class="st0" points="131.3,29.3 132.3,29.3 132.3,33.8 131.3,33.8 129.3,30.8 129.3,33.8 128.4,33.8 128.4,29.3 
		129.4,29.3 131.3,32.3 	"/>
	<path class="st0" d="M133.5,33.3c-0.4-0.4-0.6-1-0.6-1.7c0-0.8,0.2-1.3,0.6-1.7c0.4-0.4,1-0.6,1.8-0.6c0.3,0,0.7,0,1,0.1v0.8
		c-0.3-0.1-0.6-0.1-0.9-0.1c-0.3,0-0.6,0.1-0.8,0.2c-0.2,0.1-0.4,0.3-0.5,0.5c-0.1,0.2-0.2,0.5-0.2,0.9c0,0.4,0.1,0.7,0.2,0.9
		c0.1,0.2,0.3,0.4,0.5,0.5c0.2,0.1,0.5,0.1,0.8,0.1c0.3,0,0.6,0,0.9-0.1v0.8c-0.1,0-0.3,0.1-0.5,0.1c-0.2,0-0.4,0-0.5,0
		C134.5,33.9,133.9,33.7,133.5,33.3"/>
	<rect x="136.8" y="29.3" class="st0" width="1" height="4.5"/>
	<path class="st0" d="M141.7,33.8l-0.4-1.2h-1.7l-0.4,1.2h-1l1.5-4.5h1.4l1.5,4.5H141.7z M139.9,31.8h1.2l-0.6-1.9L139.9,31.8z"/>
	<path class="st0" d="M144.6,33.8v-4.4c0.2,0,0.4-0.1,0.7-0.1c0.3,0,0.5,0,0.7,0c0.8,0,1.4,0.2,1.9,0.6c0.4,0.4,0.6,1,0.6,1.7
		c0,0.5-0.1,1-0.3,1.3c-0.2,0.3-0.5,0.6-0.9,0.7c-0.4,0.2-0.9,0.2-1.5,0.2C145.4,33.9,145,33.9,144.6,33.8 M146.9,32.9
		c0.2-0.1,0.4-0.3,0.5-0.5c0.1-0.2,0.2-0.5,0.2-0.9c0-0.4-0.1-0.6-0.2-0.9c-0.1-0.2-0.3-0.4-0.5-0.5c-0.2-0.1-0.5-0.2-0.8-0.2
		c-0.2,0-0.3,0-0.5,0V33c0.1,0,0.3,0,0.5,0C146.4,33.1,146.7,33,146.9,32.9"/>
	<polygon class="st0" points="150.2,33 152.4,33 152.4,33.8 149.2,33.8 149.2,29.3 152.4,29.3 152.4,30.1 150.2,30.1 150.2,31.1 
		152,31.1 152,31.9 150.2,31.9 	"/>
	<path class="st1" d="M116.4,42.1c0.3,0.4,0.5,0.9,0.5,1.5c0,0.6-0.2,1.1-0.5,1.5c-0.3,0.4-0.8,0.7-1.5,0.9
		c-0.7,0.2-1.6,0.3-2.7,0.3c-0.4,0-0.8,0-1.3-0.1c-0.5,0-0.9-0.1-1.3-0.1V37c0.4-0.1,0.9-0.2,1.5-0.2c0.5-0.1,1.1-0.1,1.6-0.1
		c1.4,0,2.4,0.2,3.1,0.6c0.6,0.4,1,1.1,1,2c0,0.5-0.1,0.9-0.4,1.3c-0.3,0.4-0.6,0.6-1.1,0.8C115.7,41.5,116.1,41.7,116.4,42.1
		 M111.6,38.3v2.3h1.3c0.6,0,1.1-0.1,1.3-0.3c0.3-0.2,0.4-0.5,0.4-0.9c0-0.3-0.1-0.5-0.2-0.7c-0.1-0.2-0.3-0.3-0.6-0.4
		c-0.3-0.1-0.6-0.1-1.1-0.1C112.4,38.2,112,38.2,111.6,38.3 M114.1,44.7c0.3-0.1,0.5-0.2,0.7-0.4c0.1-0.2,0.2-0.4,0.2-0.7
		c0-0.5-0.1-0.8-0.4-1c-0.3-0.2-0.7-0.3-1.4-0.3h-1.5v2.6c0.3,0,0.7,0.1,1.2,0.1C113.3,44.8,113.8,44.8,114.1,44.7"/>
	<path class="st1" d="M119,45.4c-0.6-0.7-1-1.7-1-3.1v-5.5h2.1v5.7c0,0.7,0.2,1.3,0.5,1.6c0.3,0.3,0.8,0.5,1.4,0.5
		c0.6,0,1.1-0.2,1.4-0.5c0.3-0.3,0.5-0.9,0.5-1.6v-5.7h2.1v5.5c0,1.4-0.3,2.4-1,3.1c-0.6,0.7-1.6,1-3,1
		C120.7,46.4,119.7,46,119,45.4"/>
	<polygon class="st1" points="129.7,44.6 134.4,44.6 134.4,46.3 127.7,46.3 127.7,36.8 134.3,36.8 134.3,38.5 129.7,38.5 
		129.7,40.6 133.7,40.6 133.7,42.2 129.7,42.2 	"/>
	<polygon class="st1" points="141.9,36.8 143.9,36.8 143.9,46.3 141.8,46.3 137.7,39.9 137.7,46.3 135.7,46.3 135.7,36.8 
		137.8,36.8 141.9,43.1 	"/>
	<path class="st1" d="M147.4,45.8c-0.7-0.4-1.2-0.9-1.5-1.6c-0.4-0.7-0.5-1.6-0.5-2.7c0-1.1,0.2-2,0.5-2.7c0.4-0.7,0.9-1.3,1.5-1.6
		c0.7-0.4,1.5-0.5,2.4-0.5c0.9,0,1.7,0.2,2.4,0.5c0.7,0.4,1.2,0.9,1.5,1.6c0.4,0.7,0.5,1.6,0.5,2.7c0,1.1-0.2,2-0.5,2.7
		c-0.4,0.7-0.9,1.3-1.5,1.6c-0.7,0.4-1.5,0.5-2.4,0.5C148.8,46.4,148,46.2,147.4,45.8 M151.5,43.9c0.4-0.5,0.6-1.3,0.6-2.4
		c0-1.1-0.2-1.9-0.6-2.5c-0.4-0.5-1-0.8-1.7-0.8c-0.8,0-1.3,0.2-1.7,0.7c-0.4,0.5-0.6,1.3-0.6,2.4c0,1.1,0.2,2,0.6,2.5
		c0.4,0.5,1,0.8,1.7,0.8C150.5,44.7,151.1,44.4,151.5,43.9"/>
	<path class="st1" d="M156.6,46.3c-0.5-0.1-0.9-0.2-1.3-0.3v-1.7c0.4,0.1,0.8,0.2,1.3,0.3c0.5,0.1,0.9,0.1,1.3,0.1
		c0.6,0,1.1-0.1,1.3-0.3c0.3-0.2,0.4-0.5,0.4-0.8c0-0.2,0-0.4-0.1-0.5c-0.1-0.1-0.2-0.3-0.4-0.4c-0.2-0.1-0.5-0.2-0.8-0.3l-0.7-0.2
		c-0.8-0.2-1.5-0.5-1.9-1c-0.4-0.4-0.6-1-0.6-1.7c0-0.9,0.3-1.6,1-2.1c0.7-0.5,1.6-0.8,3-0.8c0.4,0,0.8,0,1.2,0.1
		c0.4,0,0.7,0.1,1,0.2v1.7c-0.3-0.1-0.6-0.2-1-0.2c-0.4-0.1-0.7-0.1-1.1-0.1c-0.7,0-1.2,0.1-1.5,0.3c-0.3,0.2-0.5,0.5-0.5,0.8
		c0,0.2,0,0.4,0.1,0.5c0.1,0.1,0.2,0.2,0.4,0.3c0.2,0.1,0.4,0.2,0.7,0.3l0.7,0.2c0.9,0.2,1.6,0.6,2,1c0.4,0.4,0.6,1,0.6,1.8
		c0,0.6-0.2,1.1-0.5,1.6c-0.3,0.4-0.7,0.8-1.3,1c-0.6,0.2-1.3,0.3-2,0.3C157.5,46.4,157,46.3,156.6,46.3"/>
	<path class="st1" d="M115.9,58.8l-0.8-2.5h-3.5l-0.8,2.5h-2l3.1-9.5h3l3.1,9.5H115.9z M112.1,54.6h2.5l-1.2-4L112.1,54.6z"/>
	<rect x="118.9" y="49.3" class="st1" width="2.1" height="9.5"/>
	<path class="st1" d="M128.3,58.8l-2.4-3.5h-0.1c-0.3,0-0.6,0-1,0v3.5h-2.1v-9.3c0.5-0.1,0.9-0.2,1.4-0.2c0.5-0.1,1-0.1,1.5-0.1
		c1.4,0,2.4,0.2,3.1,0.7c0.7,0.5,1,1.3,1,2.3c0,0.7-0.2,1.2-0.5,1.7c-0.3,0.5-0.8,0.8-1.4,1l2.7,3.8H128.3z M124.7,53.7
		c0.4,0,0.7,0.1,1,0.1c0.7,0,1.2-0.1,1.5-0.4c0.3-0.2,0.5-0.6,0.5-1.2c0-0.5-0.2-0.9-0.5-1.1c-0.3-0.2-0.8-0.4-1.5-0.4
		c-0.4,0-0.7,0-1.1,0.1V53.7z"/>
	<polygon class="st1" points="133.6,57.1 138.2,57.1 138.2,58.8 131.5,58.8 131.5,49.3 138.2,49.3 138.2,50.9 133.6,50.9 
		133.6,53.1 137.5,53.1 137.5,54.7 133.6,54.7 	"/>
	<path class="st1" d="M140.5,58.8c-0.5-0.1-0.9-0.2-1.3-0.3v-1.7c0.4,0.1,0.8,0.2,1.3,0.3c0.5,0.1,0.9,0.1,1.3,0.1
		c0.6,0,1.1-0.1,1.3-0.3c0.3-0.2,0.4-0.5,0.4-0.8c0-0.2,0-0.4-0.1-0.5c-0.1-0.1-0.2-0.3-0.4-0.4c-0.2-0.1-0.5-0.2-0.8-0.3l-0.7-0.2
		c-0.8-0.2-1.5-0.5-1.9-1c-0.4-0.4-0.6-1-0.6-1.7c0-0.9,0.3-1.6,1-2.1c0.7-0.5,1.6-0.8,3-0.8c0.4,0,0.8,0,1.2,0.1
		c0.4,0,0.7,0.1,1,0.2v1.7c-0.3-0.1-0.6-0.2-1-0.2c-0.4-0.1-0.7-0.1-1.1-0.1c-0.7,0-1.2,0.1-1.5,0.3c-0.3,0.2-0.5,0.5-0.5,0.8
		c0,0.2,0,0.4,0.1,0.5c0.1,0.1,0.2,0.2,0.4,0.3c0.2,0.1,0.4,0.2,0.7,0.3l0.7,0.2c0.9,0.2,1.6,0.6,2,1c0.4,0.4,0.6,1,0.6,1.8
		c0,0.6-0.2,1.1-0.5,1.6c-0.3,0.4-0.7,0.8-1.3,1c-0.6,0.2-1.3,0.3-2,0.3C141.5,58.9,141,58.8,140.5,58.8"/>
	<rect x="61.2" y="14.8" class="st1" width="0.6" height="2.5"/>
	<rect x="62.8" y="14.8" class="st1" width="0.6" height="2.5"/>
	<path class="st1" d="M62.9,13.7h-2.8c-0.2,0-0.3,0.2-0.3,0.3v0.5h-1.4c-0.5,0-0.9,0.4-0.9,0.9l-0.1,1.5l-0.3,0.3
		c-0.2,0.2-0.2,0.6-0.2,0.7v1.7c0,0.2,0.2,0.3,0.3,0.3h0.3c0.1,0.5,0.6,0.8,1.1,0.8c0.6,0,1.2-0.5,1.2-1.2c0-0.6-0.5-1.2-1.2-1.2
		c-0.4,0-0.8,0.3-1,0.6v-0.5h0.1c0.2,0,0.3-0.2,0.3-0.3c0-0.2-0.2-0.3-0.3-0.3h-0.1c0,0,0-0.1,0-0.1l0.3-0.3h1.9v2.1
		c0,0.2,0.2,0.3,0.3,0.3h0.4c0.3-0.2,0.7-0.5,1.1-0.7c0,0,0,0,0,0h-1.2v-0.7h2.7c0.8-0.3,1.6-0.5,2.5-0.7h-5.3v-3.5H64
		C63.7,14.1,63.3,13.9,62.9,13.7 M58.6,19c0.3,0,0.5,0.2,0.5,0.5c0,0.3-0.2,0.5-0.5,0.5c-0.3,0-0.5-0.2-0.5-0.5
		C58.1,19.2,58.3,19,58.6,19 M59.8,16.7h-1.7l0.1-1.3l0,0c0-0.1,0.1-0.2,0.2-0.2h1.4V16.7z"/>
	<path class="st1" d="M64.7,14.8l-0.4,0l0,2.5l0.6,0l0-2.4C64.9,14.9,64.8,14.9,64.7,14.8"/>
	<path class="st1" d="M65.9,15.7l0,1.7l0.6,0l0-1.2C66.3,16,66.1,15.8,65.9,15.7"/>
	<path class="st1" d="M49.1,25.4v-2.8l1.7,1.7l0.7-0.3v-8l1.7-0.9c-0.2,0.4-0.3,0.8-0.4,1.2c-0.5,2.2,0.7,4.1,0.7,4.1l0,0
		c0,0.5,0.2,1,0.6,1.4l0.2,0.3c0.1,0.1,0.3,0.1,0.4,0l0.2-0.2l0.4,0.4c0.1,0.1,0.3,0.1,0.4,0c0.2-0.2,0.6-0.2,0.8,0
		c0.2,0.2,0.2,0.6-0.1,0.8c-0.2,0.2-0.6,0.2-0.8,0c-0.1-0.1-0.3-0.1-0.4,0c-0.1,0.1-0.1,0.3,0,0.4c0.4,0.5,1.2,0.5,1.7,0.1
		c0.5-0.4,0.5-1.2,0.1-1.7c-0.4-0.4-1-0.5-1.4-0.2l-0.2-0.2l0.2-0.2c0.1-0.1,0.1-0.3,0-0.4l-0.2-0.3c-0.3-0.3-0.7-0.6-1.1-0.7l0,0
		c-0.1-0.1-2.1-3.5,1.3-6.1l1-0.5l-0.2-0.7l-5,0.1v-1.2l-0.4-0.4h-2.4l-0.4,0.4v14.6l0.5-0.3L49.1,25.4z M55,20.9L55,20.9l-0.4,0.4
		l0,0c-0.2-0.3-0.4-0.6-0.4-0.9C54.5,20.5,54.8,20.7,55,20.9 M54.7,13.2c-0.1,0.1-0.2,0.2-0.3,0.3l-1,0.5l-1.1-0.8L54.7,13.2z
		 M51.5,13.6l1.1,0.8L51.5,15V13.6z M50.7,23l-1.4-1.4l1.4-1.3V23z M50.7,18.6l-1.3-1l1.3-1.1V18.6z M50.7,12.9v2l-1.4-1.1l1.4-1.4
		V12.9z M49.1,11.7h1.2l-1.2,1.2V11.7z M49.1,14.6l1.3,1.1l-1.3,1.1V14.6z M49.1,18.4l1.4,1l-1.4,1.3V18.4z"/>
	<path class="st1" d="M54.1,35.7c1,0,1.9-0.8,2-1.8v0c0.1-0.5-0.1-1.1-0.4-1.5c-0.3-0.4-0.8-0.7-1.4-0.8c-0.5-0.1-1.1,0.1-1.5,0.4
		c-0.4,0.3-0.7,0.8-0.8,1.4c-0.1,1.1,0.6,2.2,1.8,2.3C53.9,35.7,54,35.7,54.1,35.7 M53.5,34.1c-0.1-0.2-0.2-0.4-0.2-0.6
		c0.1-0.4,0.4-0.7,0.8-0.7c0,0,0.1,0,0.1,0c0.2,0,0.4,0.1,0.5,0.3c0.1,0.2,0.2,0.4,0.2,0.6c0,0.2-0.1,0.4-0.3,0.5
		c-0.2,0.1-0.4,0.2-0.6,0.2l0,0C53.8,34.4,53.6,34.3,53.5,34.1"/>
	<path class="st1" d="M101,34.8c-0.1,0.1-0.1,0.2-0.2,0.2c-0.2,0.2-0.6,0.6-0.8,0.8l-0.1,0.1c-0.2,0.2-0.5,0.3-0.7,0.4
		c-0.7,0.3-1.1,0.8-1.3,1.5c-0.1-0.4-0.2-0.7-0.1-1c0.1-0.7,0.4-1.2,0.8-1.8c0.1-0.1,0.2-0.3,0.3-0.4c0.1-0.1,0.1-0.3,0-0.4
		C98.8,34,98.7,34,98.5,34c-0.8,0.1-1.6,0.4-2.2,0.8c0.1-0.4,0.4-0.8,0.8-1.2c0-0.1,0.1-0.1,0.1-0.2c0.1-0.1,0.1-0.3,0-0.5
		c-0.1-0.1-0.3-0.2-0.5-0.1c-0.5,0.3-1,0.5-1.5,0.8c-0.4,0.2-0.9,0.4-1.3,0.5c-0.3,0.1-0.6,0.3-0.9,0.5c0.1-0.2,0.2-0.3,0.3-0.4
		c0.2-0.3,0.4-0.5,0.7-0.7c0.1-0.1,0.3-0.2,0.4-0.4c0.5-0.5,1-1.1,1.3-1.7c0.1-0.1,0.1-0.2,0-0.3c0-0.1-0.1-0.2-0.2-0.2
		c-0.4-0.1-0.8-0.2-1.2-0.2c-0.2,0-0.4,0.1-0.5,0.2l0,0c0,0,0,0,0,0c0,0,0-0.1,0-0.1c0.1-0.3,0.2-0.5,0.4-0.6c0,0,0,0,0.1-0.1
		c0.1-0.2,0.1-0.4,0.1-0.4c0-0.1-0.1-0.2-0.4-0.2c0,0-0.1,0-0.1,0c-0.3,0.1-0.6,0.1-0.9,0c-0.6-0.1-1.2-0.1-1.9,0
		c0,0,0.1-0.1,0.1-0.1c0.4-0.4,0.9-0.6,1.5-0.7c0.4-0.1,0.7-0.3,1.1-0.5c0.1-0.1,0.2-0.1,0.3-0.2c0.3-0.1,0.3-0.3,0.3-0.4
		c0-0.1-0.1-0.3-0.3-0.4c-0.3-0.2-0.7-0.2-1-0.2c0.2-0.1,0.3-0.2,0.5-0.4c0.1-0.2,0.3-0.2,0.6-0.3l0,0c0.1,0,0.2-0.2,0.3-0.3
		c0-0.1,0-0.3-0.2-0.4c-0.1,0-0.1-0.1-0.2-0.1c-0.1-0.1-0.2-0.1-0.3-0.2c-0.5-0.3-0.8-0.7-1-1.1c-0.2-0.4-0.5-0.6-0.7-0.7
		c-0.2-0.1-0.5-0.2-0.7-0.3c0.5-0.1,0.9-0.1,1.4,0.1c0.6,0.2,1.2,0.5,1.8,0.9l0,0c0,0,0.2,0.2,0.4,0.1c0.2,0,0.3-0.2,0.3-0.3
		c0.1-0.9-0.2-1.6-0.7-2.2c0.5,0.1,1,0.4,1.5,0.7c0.1,0.1,0.3,0.1,0.5,0c0.1-0.1,0.1-0.3,0.1-0.5c-0.2-0.3-0.2-0.3-0.2-0.4
		c0-0.1-0.1-0.1-0.1-0.3c-0.1-0.1,0-0.3,0-0.5c0-0.1,0-0.2,0-0.3c0-0.3,0.1-0.7,0.3-1.1c-0.2-0.1-0.4-0.3-0.6-0.5
		c-0.3,0.5-0.5,1-0.5,1.5c0,0.1,0,0.2,0,0.2c0,0.2,0,0.4,0,0.6c-0.7-0.3-1.3-0.5-2-0.5c-0.2,0-0.3,0.1-0.3,0.2
		c-0.1,0.1,0,0.3,0.1,0.4c0.6,0.6,1.2,1.1,1.3,1.8c-0.5-0.3-1-0.5-1.5-0.7c-1.2-0.5-2.3-0.1-3.3,0.3c-0.1,0.1-0.2,0.2-0.2,0.3
		c0,0.1,0.1,0.3,0.2,0.3c0.1,0.1,0.3,0.1,0.3,0.1c0.6,0.1,1.1,0.2,1.6,0.4c0.2,0.1,0.3,0.2,0.4,0.3c0.2,0.5,0.6,0.9,1.1,1.3
		c-0.1,0.1-0.3,0.2-0.4,0.4c-0.1,0.2-0.3,0.3-0.6,0.2c-0.3-0.1-0.4,0.1-0.5,0.2c-0.1,0.1-0.1,0.3,0,0.5l0,0c0.3,0.4,0.7,0.7,1.2,0.6
		c-0.2,0.1-0.4,0.2-0.6,0.2c-0.6,0.2-1.3,0.4-1.8,0.9c-0.1,0.1-0.3,0.2-0.5,0.2c0,0,0,0,0,0c-0.4,0-0.5,0.2-0.6,0.3
		c-0.1,0.3,0.1,0.6,0.2,0.7c0.1,0.2,0.3,0.2,0.5,0.3c0.2,0,0.4,0,0.6,0c0.7-0.1,1.3-0.1,1.8,0c0.1,0,0.3,0,0.4,0.1
		c-0.1,0.1-0.1,0.2-0.1,0.3c-0.1,0.3-0.2,0.5-0.5,0.6c-0.3,0.1-0.3,0.3-0.3,0.4c0,0.1,0,0.3,0.2,0.5c0.3,0.3,0.7,0.1,0.9,0
		c0.3-0.1,0.5-0.3,0.7-0.4c0.1,0,0.1-0.1,0.2-0.1l0,0c0,0,0.1-0.1,0.1-0.1c0.1,0,0.3,0,0.4,0c-0.3,0.4-0.6,0.7-0.9,1.1
		c-0.1,0.1-0.2,0.2-0.4,0.3c-0.3,0.3-0.6,0.5-0.8,0.8c-0.4,0.5-0.6,1.1-0.6,1.7c0,0.1,0.1,0.2,0.1,0.3c0.1,0.1,0.2,0.1,0.3,0.1
		c0.2,0,0.3-0.1,0.4-0.2l0.1,0c0.4-0.3,0.8-0.5,1.2-0.7c0.4-0.2,0.9-0.3,1.3-0.6c0,0,0.1,0,0.1-0.1c-0.2,0.4-0.3,0.8-0.2,1.3
		c0,0.1,0.1,0.2,0.2,0.3c0.1,0,0.3,0,0.4,0c0.6-0.4,1.1-0.7,1.7-0.9c-0.3,0.5-0.6,1.1-0.7,1.8c-0.1,0.9,0.4,2.4,0.8,2.8
		c0.1,0.1,0.3,0.1,0.4,0.1c0.1-0.1,0.2-0.2,0.2-0.3c0-0.4,0.1-0.8,0.1-1.1c0.1-0.6,0.3-0.9,0.8-1.1c0.3-0.1,0.7-0.3,1-0.5l0.1-0.1
		c0.1-0.1,0.3-0.3,0.5-0.4c0.1-0.1,0.1-0.1,0.2-0.2C101.2,35.4,101.1,35.1,101,34.8"/>
	<rect x="68.2" y="7.1" class="st1" width="0.8" height="0.8"/>
	<rect x="71.2" y="7.1" class="st1" width="0.8" height="0.8"/>
	<path class="st1" d="M67.3,6.1l2.4-1.8v1.6c0,0.1,0,0.2,0.1,0.3l0,0l0,0c0.1,0.1,0.3,0.1,0.4,0l0.1-0.1v0l2.4-1.8v1.2v0.3
		c0,0.1,0,0.2,0.1,0.3l0,0l0,0c0.1,0.1,0.3,0.1,0.4,0l0.1-0.1v0l2.4-1.8v0.8h0.6V3.7c0-0.1,0-0.2-0.1-0.3l0,0l0,0
		c-0.1-0.1-0.3-0.1-0.4,0l-0.1,0.1v0l-2.5,1.8V4V3.7c0-0.1,0-0.2-0.1-0.3l0,0l0,0c-0.1-0.1-0.3-0.1-0.4,0l-0.1,0.1v0l-2.5,1.8V4V3.7
		c0-0.1,0-0.2-0.1-0.3l0,0l0,0c-0.1-0.1-0.3-0.1-0.4,0l-3.1,2.2c-0.1,0.1-0.1,0.2-0.1,0.3v3.6c0.2,0.1,0.4,0.3,0.6,0.5V6.1z"/>
	<path class="st1" d="M64.3,11.7l0.3,0.2l0.4-0.7L64.7,11c-0.4-0.2-0.7-0.4-1.1-0.6l-0.4-0.2L62.9,11l0.4,0.2
		C63.6,11.3,64,11.5,64.3,11.7"/>
	<path class="st1" d="M79,17.8l0.4-0.1l-0.2-0.8L78.9,17c-0.4,0.1-0.8,0.1-1.2,0.2l-0.4,0l0.1,0.8l0.4,0
		C78.2,17.9,78.6,17.9,79,17.8"/>
	<path class="st1" d="M69.9,15.6l0.5-0.7l-0.9-0.6c0,0-0.2-0.1-0.4-0.3l-0.3-0.2l-0.5,0.7l0.3,0.2C68.8,14.9,69,15,69,15L69.9,15.6z
		"/>
	<path class="st1" d="M66.4,13.1c0.1,0.1,0.3,0.2,0.6,0.4l0.3,0.2l0.5-0.7l-0.3-0.2c-0.2-0.2-0.4-0.3-0.5-0.4
		c-0.1-0.1-0.3-0.2-0.4-0.3l-0.3-0.2l-0.5,0.7l0.3,0.2C66.1,12.9,66.3,13,66.4,13.1"/>
	<path class="st1" d="M76.1,18l0.1-0.8l-0.4,0c-0.4,0-0.7-0.1-1.1-0.2l-0.4-0.1L74,17.7l0.4,0.1c0.4,0.1,0.8,0.2,1.3,0.2L76.1,18z"
		/>
	<path class="st1" d="M72.8,17.3l0.3-0.7l-0.4-0.2c-0.4-0.2-0.7-0.3-1.1-0.5l-0.4-0.2L71,16.3l0.4,0.2c0.4,0.2,0.7,0.4,1.1,0.6
		L72.8,17.3z"/>
	<path class="st1" d="M96.1,28.7c0.6,3.2,3.7,5.1,3.9,5.2c0.1,0,0.4,0.2,0.9,0.4c-0.3-0.4-0.5-0.9-0.6-1.3c-0.6-0.4-2.9-2-3.3-4.5
		c-0.3-1.6,0.3-3.4,1.6-5.1c0-0.1,0-0.3,0-0.4c0-0.3,0-0.6-0.1-0.9c-0.1,0.1-0.2,0.2-0.2,0.2c0,0,0,0,0,0
		C96.4,24.5,95.7,26.6,96.1,28.7"/>
	<path class="st1" d="M93.3,49c0,0-0.1,0-0.2,0c-0.2-0.2-0.8-1.1-1.2-1.8c-0.6-0.9-1.2-1.8-1.7-2.5c0.4-0.3,0.6-0.8,0.5-1.5
		c0,0-0.2-1.6-0.9-1.7c-0.2,0-0.4,0.1-0.5,0.3l0,0c-0.1,0.4-0.3,1-0.7,1.2c-0.1-0.1-0.3-0.1-0.4-0.1c0.3-0.6,0.3-1.2-0.2-1.9
		c0,0,0,0,0,0c-0.1-0.2-0.3-0.2-0.4-0.2c-0.1,0-0.3,0.1-0.4,0.2c0,0.1-0.1,0.2-0.1,0.3c-0.1,0.3-0.3,0.6-1,1c-0.6,0.3-1,0.8-1.1,1.4
		c-0.2-0.1-0.5-0.2-0.7-0.3c-0.4-0.1-0.9,0-1.3,0.3c-0.3,0.2-0.4,0.4-0.4,0.7c0,0.3,0.2,0.6,0.5,0.9c-0.4,0.1-0.7,0.1-1.1,0.2
		c-0.2,0.3-0.4,0.6-0.7,0.9c0.9-0.1,1.8-0.2,2.8-0.5c0.2,0,0.3-0.2,0.3-0.3c0-0.2-0.1-0.3-0.2-0.4c-0.4-0.2-0.8-0.5-0.9-0.7
		c0.1-0.1,0.4-0.3,0.7-0.2c0.4,0.1,0.9,0.4,1.1,0.7l0,0c0.2,0.3,0.5,0.2,0.6,0.2c0,0,0.3-0.2,0.2-0.6c-0.4-1.1,0.3-1.4,0.5-1.5
		c0.5-0.3,0.8-0.5,1-0.8c0,0.6-0.6,1-0.7,1.1c-0.2,0.1-0.2,0.4-0.1,0.6c0.1,0.2,0.4,0.2,0.6,0.1c0,0,0.4-0.3,0.8-0.1
		c0.2,0.2,0.4,0.1,0.5,0.1c0.5-0.2,0.8-0.7,1-1.1c0.1,0.3,0.1,0.7,0,1c-0.1,0.2-0.2,0.3-0.3,0.3c-0.1,0-0.3,0.1-0.4,0.4
		c0,0.1,0,0.3,0.1,0.4c0.6,0.6,1.3,1.8,2,2.8c0.9,1.4,1.3,1.9,1.5,2c0.1,0.1,0.2,0.1,0.4,0.1c0.1,0,0.1,0,0.2,0
		c0.1,0.3-0.1,0.8-0.2,1.2l0,0c-0.1,0-0.2,0.1-0.2,0.2c-0.2,0.3-0.6,0.7-0.7,0.9c-0.3,0.2-0.6,0.1-1.1-0.1c-0.2-0.1-0.4-0.2-0.6-0.2
		c-0.8-0.2-1.9-0.4-3.1-0.1c-0.6,0.1-1.1,0.3-1.7,0.6c-0.7,0.3-1,1.9-1.2,2.5c0,0.2,0.1,0.4,0.3,0.5c0,0,0.1,0,0.1,0
		c0.2,0,0.4-0.1,0.4-0.3c0.2-0.9,0.5-1.8,0.7-1.9c0.5-0.3,1-0.4,1.5-0.5c1.1-0.2,2-0.1,2.7,0.1c0.1,0,0.3,0.1,0.4,0.2
		c0.5,0.2,1.3,0.6,2,0c0.2-0.2,0.6-0.6,0.7-0.9l0.1,0c0.1,0,0.2-0.1,0.3-0.2c0.1-0.1,0.8-1.4,0.2-2.2C93.8,49.1,93.6,49.1,93.3,49"
		/>
	<path class="st1" d="M94.8,40c-1.3,0-2.4,0.5-3.2,1.4c0,0,0,0,0,0l0,0c-0.1,0.1-0.2,0.2-0.2,0.3l0.1,0.4c1,0.1,2.1,1.2,2.1,1.2
		l0.2,0.2l0.2-0.1c0.2-0.1,0.5,0,0.8,0.1l-1.1,2.1c-0.1,0-0.3,0-0.4,0c-0.1,0-0.2,0-0.3,0c-0.2,0-0.4,0-0.6,0c-0.2,0-0.5,0-0.7,0
		l0.8,1c0.4,0,1.1,0,1.4,0c0,0,0.1,0,0.1,0c0.4,0,0.7,0.1,1.1,0.1c0.9,0.1,1.8,0.3,2.6,0.6c0.2-0.3,0.4-0.6,0.6-0.9
		c-1.2-0.4-2.4-0.7-3.7-0.8l1-1.8c0.2,0.1,0.3,0.3,0.4,0.5l0.1,0.4l0.4-0.1c0.3-0.1,1,0.1,1.6,0.7c0,0,0,0,0,0l0,0
		c0.1,0.1,0.2,0.2,0.3,0.3l0.3,0.1c0.4-0.6,0.6-1.3,0.6-2C99,41.7,97.1,40,94.8,40 M98.1,44.7c-0.6-0.5-1.3-0.8-1.8-0.8
		c-0.4-0.7-1.6-1.3-2.4-1.2c-0.3-0.2-0.8-0.7-1.5-1.1c0.6-0.6,1.5-0.9,2.5-0.9c1.9,0,3.4,1.4,3.4,3.1C98.3,44.1,98.2,44.4,98.1,44.7
		"/>
	<path class="st1" d="M84.7,50.6c0.3-0.1,0.6-0.1,0.7-0.1c0.2,0,0.4,0,0.5-0.2c0.1-0.1,0.1-0.3,0.1-0.5c-0.1-0.3-0.3-0.5-0.5-0.6
		C85.3,49,85,49,84.6,49c-0.7-0.8-1.6-1.5-2.2-1.6c0,0-0.4-0.1-0.6,0c-0.7,0-1.3,0.3-1.8,0.7c-0.5,0.4-0.9,1-1.1,1.7l0,0
		c-0.1,0.2-0.1,0.5-0.2,0.8c-0.1,0.6,0.1,1.3,0.4,2l0.2,0.4c0.4,0.7,0.9,1.3,1.4,1.7c0.4,0.3,0.7,0.4,0.9,0.4c0.1,0,0.2,0,0.3-0.1
		c0.5-0.2,0.7-0.9,0.6-2l0,0c0-0.2-0.2-1.1-0.2-1.4c-0.1-0.3-0.1-0.5-0.2-0.7c0,0-0.1-1,0.4-1.2c0.5-0.1,0.8,0,1,0.3
		c0,0.1-0.1,0.2-0.1,0.4c-0.1,0.3,0,0.8,0.4,1.2c0.1,0.1,0.3,0.2,0.5,0.1c0.2-0.1,0.3-0.3,0.3-0.5C84.4,50.9,84.5,50.7,84.7,50.6
		 M81.6,54.4c-0.1,0-0.3,0-0.6-0.2c-0.4-0.3-0.8-0.8-1.1-1.3c0.4-0.4,0.9-0.7,1.7-0.6c0.1,0.3,0.1,0.7,0.1,0.8l0,0
		C81.8,53.7,81.7,54.3,81.6,54.4 M80.1,51.2c0.1-0.1,0.2-0.1,0.2-0.1c0,0,0.2,0,0.3,0c0,0.1,0,0.3,0,0.6c-0.1,0-0.1,0-0.2,0.1
		C80.3,51.5,80.2,51.3,80.1,51.2 M83.8,50.6c0-0.3,0.1-0.5,0.1-0.5c0.1-0.1,0.1-0.2,0-0.3c-0.1-0.3-0.4-0.6-0.7-0.7
		c-0.3-0.2-0.7-0.2-1.1,0c-0.3,0.1-0.5,0.3-0.7,0.5c-0.2,0.4-0.3,1.1-0.1,1.9c-0.1,0-0.1,0-0.2,0c0-0.3,0-0.6,0-0.7
		c0-0.2-0.1-0.3-0.3-0.3c-0.3-0.1-0.7,0-0.8,0c0,0-0.4,0.1-0.6,0.4c-0.2,0.3,0,0.7,0.1,0.8c0,0,0.1,0.1,0.1,0.2
		c0,0.1,0.1,0.1,0.1,0.2c-0.1,0.1-0.2,0.1-0.3,0.2c-0.2-0.4-0.3-1-0.3-1.6l0,0c0-0.1,0.1-0.4,0.1-0.5l0-0.1c0,0,0,0,0,0
		c0.2-0.6,0.5-1.1,0.9-1.4c0.4-0.3,0.8-0.5,1.5-0.6c0.9-0.1,2,1,2.4,1.5c0.1,0.1,0.2,0.1,0.3,0.1c0.4,0,0.6,0.1,0.7,0.2h0
		c-0.2,0-0.5,0-0.8,0.2C84.2,50.1,84,50.4,83.8,50.6"/>
	<path class="st1" d="M81.1,53.1c-0.1-0.1-0.2-0.1-0.3,0c-0.1,0-0.2,0.1-0.2,0.2c-0.1,0.1-0.1,0.2,0,0.3c0,0.1,0.1,0.2,0.2,0.2
		c0.1,0,0.1,0.1,0.2,0.1c0,0,0.1,0,0.1,0c0.1,0,0.2-0.1,0.2-0.2c0.1-0.1,0.1-0.2,0-0.3C81.3,53.3,81.2,53.2,81.1,53.1"/>
	<rect x="72.3" y="10.8" class="st1" width="2.2" height="0.8"/>
	<rect x="72.3" y="12.2" class="st1" width="2.2" height="0.8"/>
	<path class="st1" d="M78.5,7.2h-0.8c-0.1,0-0.1,0-0.1,0.1V8h-0.7c-0.1,0-0.1,0-0.1,0.1V9c0,0.1,0,0.1,0.1,0.1h0.7v0.7
		c0,0.1,0,0.1,0.1,0.1h0.8c0.1,0,0.1,0,0.1-0.1V9.1h0.7c0.1,0,0.1,0,0.1-0.1V8.2c0-0.1,0-0.1-0.1-0.1h-0.7V7.3
		C78.6,7.2,78.6,7.2,78.5,7.2"/>
	<path class="st1" d="M79.3,14.4v-1.7h0.5v-0.5H79h-1.9h-0.7v0.5h0.5v2.1c0.2,0,0.3,0,0.5,0v-2.1h1.4v1.9
		C79,14.4,79.1,14.4,79.3,14.4"/>
	<path class="st1" d="M75,5.9v3.6h-3.6c-0.2,0-0.3,0.2-0.3,0.3v2.9c0.2,0.2,0.5,0.3,0.7,0.4v-3H75v4.4c0.2,0.1,0.5,0.1,0.7,0.1V6.2
		h4.8v7.4l0.7-0.5v-2.9h3.3v1.4l0.1,0.1c0.1-0.2,0.3-0.3,0.6-0.3V9.9c0-0.2-0.2-0.3-0.3-0.3h-3.6V5.9c0-0.2-0.2-0.3-0.3-0.3h-5.5
		C75.2,5.5,75,5.7,75,5.9"/>
	<path class="st1" d="M77.8,38.3l0,2.6c0.1,0,0.3,0,0.4,0.1c0.1,0,0.3,0.1,0.4,0.2l1.2-2.3C79.7,38.8,79,38,77.8,38.3"/>
	<path class="st1" d="M77.1,41l-0.8-2.5c0,0-1.1-0.1-1.7,1l1.8,1.9C76.6,41.3,76.9,41.1,77.1,41"/>
	<path class="st1" d="M73.3,42.7l2.6,0c0-0.1,0-0.3,0.1-0.4c0-0.1,0.1-0.3,0.1-0.4l-2.3-1.2C73.8,40.7,72.9,41.5,73.3,42.7"/>
	<path class="st1" d="M74.5,45.8l1.9-1.8c-0.2-0.2-0.3-0.4-0.4-0.7l-2.5,0.8C73.5,44.1,73.4,45.2,74.5,45.8"/>
	<path class="st1" d="M75.7,46.7C75.7,46.7,75.7,46.7,75.7,46.7C75.7,46.7,75.7,46.7,75.7,46.7C75.7,46.7,75.7,46.7,75.7,46.7
		C75.7,46.8,75.7,46.8,75.7,46.7C75.7,46.8,75.7,46.8,75.7,46.7C75.8,46.8,75.8,46.8,75.7,46.7c0.1,0.1,0.1,0.1,0.1,0.1c0,0,0,0,0,0
		c0,0,0,0,0.1,0c0,0,0,0,0,0c0,0,0,0,0.1,0c0,0,0,0,0,0c0,0,0,0,0.1,0c0,0,0,0,0,0c0,0,0.1,0,0.1,0c0,0,0,0,0,0c0,0,0.1,0,0.1,0
		c0,0,0,0,0,0c0,0,0.1,0,0.1,0c0,0,0,0,0,0c0,0,0.1,0,0.1,0c0,0,0,0,0,0c0,0,0.1,0,0.1,0c0,0,0,0,0,0c0,0,0.1,0,0.1,0c0,0,0,0,0,0
		c0,0,0.1,0,0.1,0c0,0,0,0,0,0c0,0,0.1,0,0.1,0c0,0,0,0,0,0c0,0,0.1,0,0.1,0c0,0,0,0,0,0c0,0,0.1,0,0.1,0c0,0,0,0,0,0
		c0,0,0.1,0,0.1,0c0,0,0,0,0,0c0,0,0.1,0,0.1,0c0,0,0,0,0,0l0-0.1l0-2.6c-0.1,0-0.3,0-0.4-0.1c-0.1,0-0.3-0.1-0.4-0.1l-1,1.9
		L75.7,46.7C75.7,46.7,75.7,46.7,75.7,46.7C75.7,46.7,75.7,46.7,75.7,46.7"/>
	<path class="st1" d="M80.8,46l-1.8-1.9c-0.2,0.2-0.4,0.3-0.7,0.4L79,47C79,47,80.1,47,80.8,46"/>
	<path class="st1" d="M82.1,42.8l-2.6,0c0,0.1,0,0.3-0.1,0.4c0,0.1-0.1,0.3-0.2,0.4l2.3,1.2C81.6,44.8,82.4,44.1,82.1,42.8"/>
	<path class="st1" d="M81.9,41.4c0,0,0.1-1.1-1-1.7L79,41.5c0.2,0.2,0.3,0.4,0.4,0.7L81.9,41.4z"/>
	<path class="st1" d="M79,42.8c0-0.7-0.6-1.3-1.3-1.3c-0.7,0-1.3,0.6-1.3,1.3s0.6,1.3,1.3,1.3C78.4,44.1,79,43.5,79,42.8"/>
	<rect x="77.8" y="28.3" class="st1" width="0.8" height="0.8"/>
	<rect x="77.8" y="29.6" class="st1" width="0.8" height="0.8"/>
	<rect x="86.5" y="28.3" class="st1" width="0.8" height="0.8"/>
	<rect x="86.5" y="29.6" class="st1" width="0.8" height="0.8"/>
	<rect x="88.3" y="16.5" class="st1" width="0.8" height="0.8"/>
	<rect x="83.4" y="13.9" class="st1" width="0.8" height="0.8"/>
	<path class="st1" d="M56.7,39.3c2.7,0.6,5.4,2.1,6.9,3.7l0.9-0.3c-1.5-1.9-4.6-3.6-7.6-4.3c-2.7-0.7-5.9-0.5-8.6,0.7v1
		C51,38.8,54.2,38.7,56.7,39.3"/>
	<path class="st1" d="M57.9,37.8L57.9,37.8c2.8,0.6,6.1,2.8,7.6,4.6l0.9-0.3c0,0,0,0,0,0c-1.4-1.9-4.6-4.1-7.6-4.9
		c0.2-0.1,0.5-0.3,0.5-0.3c0.1-0.1,0.3-0.2,0.4-0.3c2.8,0.8,6.3,3.3,7.5,5.2c0,0,0,0,0,0l0.9-0.3c0-0.1-0.1-0.2-0.1-0.2
		c-0.3-0.4-0.7-0.9-1.1-1.3c0.2-0.2,0.8-0.5,0.9-0.6c2.2-1.2,7.9-3,10.8-2.2c0.1,0.1,0.1,0.1,0.1,0.1c0.8,0.6,2,1,3.2,1.1
		c0.1,0,0.1,0,0.2,0c0.2,0,0.4,0,0.6,0c0,0.1,1.3-0.2,1.7-0.4c0,0,0.1,0,0.1-0.1c0.5-0.2,1-0.2,1.6-0.1c0.2,0.1,0.5,0.2,0.7,0.4
		c0,0,0.1,0,0.1,0.1c0.1,0.1,0.2,0.2,0.3,0.2c1,0.7,2,1.4,3.3,1.6c0.7,0.1,1.6,0,2.3-0.2c0.1,0,0.3-0.1,0.4-0.1
		c0.4-0.1,0.8-0.4,1.3-0.4c0.7-0.1,1.6-0.2,2.3,0.1c-0.2-0.3-0.3-0.7-0.4-1.1c-0.6,0,0,0-0.6,0c-0.9-0.1-1.6,0-2.6,0.4
		c0,0-0.2,0.1-0.4,0.1c-0.4,0.1-1.1,0.3-1.6,0.2c0,0-0.1,0-0.1,0c-0.9-0.1-2-0.5-2.8-1.1c-0.1,0-0.1-0.1-0.2-0.1
		c-0.3-0.2-0.6-0.5-0.9-0.7c-0.2-0.1-0.3-0.2-0.5-0.3c-0.9-0.3-1.8-0.3-2.6,0.1c-0.6,0.3-1.3,0.4-2.1,0.3c-1.4,0-3.1-1.2-3.1-1.2
		c-1-0.9-2.3-1.6-3.7-2.2c0,0,0,0,0,0c0,0,0,0,0,0c1.3-0.7,2.7-1.2,4.2-1.5c0.3-0.1,0.5-0.1,0.8-0.1c0.3,0,0.6-0.1,1-0.1
		c0.4,0,1.9,0,1.9,0c0.4,0,0.8,0,1.2,0c2.7,0.2,5.3,1.1,7.2,2.5c0.1-0.3,0.4-0.7,0.6-0.9c-1-0.7-2.3-1.3-3.6-1.8l0-4.6
		c0-0.1,0-0.2-0.1-0.3c-0.1-0.1-0.2-0.1-0.3-0.1l-2.2,0l0-0.2c0-0.1-0.1-0.3-0.2-0.3l-2.8-1.8l0-0.4l2.2,0c0.1,0,0.2,0,0.3-0.1
		c0.1-0.1,0.1-0.2,0.1-0.3l0-1.3c0-0.1,0-0.2-0.1-0.3c-0.1-0.1-0.2-0.1-0.3-0.1h0l-2.6,0c-0.1,0-0.2,0-0.3,0.1
		c-0.1,0.1-0.1,0.2-0.1,0.3l0,2.1l-2.8,1.8c-0.1,0.1-0.2,0.2-0.2,0.4l0,0.2l-2.2,0c-0.1,0-0.2,0-0.3,0.1c-0.1,0.1-0.1,0.2-0.1,0.3
		l0,4.7c0,0-0.1,0-0.1,0.1c-0.2,0.1-0.4,0.2-0.6,0.3c-0.1,0-0.1,0.1-0.2,0.1c-0.3-0.4-0.6-0.8-0.8-1.2c-0.2-0.3-0.3-0.6-0.3-1
		c-0.1-0.3-0.1-0.7-0.1-1c0-0.4,0.1-0.7,0.2-1.1c0,0,0.3-1.1,0.3-1.1c-0.4,0-0.9-0.1-1.3-0.1c0-0.2,0-0.4,0-0.5c0-0.1,0-0.3,0-0.4
		c0-0.1,0-0.1,0-0.2c0,0,0-0.1,0-0.1c0,0,0-0.1,0-0.1c0-0.1,0.1-0.3,0.1-0.4c0-0.1,0-0.1,0.1-0.2c0,0,0,0,0-0.1c0,0,0,0,0-0.1
		c0.1-0.1,0.1-0.2,0.2-0.4c0,0,0-0.1,0.1-0.1c0,0,0,0,0-0.1c0-0.1,0.1-0.1,0.1-0.2c0.1-0.1,0.2-0.2,0.3-0.3c0,0,0.1-0.1,0.1-0.1
		c0,0,0,0,0.1,0c0,0,0,0,0.1,0c0.1-0.1,0.2-0.1,0.3-0.2c0,0,0.1-0.1,0.1-0.1c0,0,0.1,0,0.1,0c0,0,0.1,0,0.1,0
		c0.2-0.1,0.4-0.1,0.6-0.2c0,0,0.1,0,0.1,0c0,0,0,0,0,0c0,0,0.1,0,0.1,0c0.1,0,0.2,0,0.3,0c0.1,0,0.2,0,0.3,0c0,0,0.1,0,0.1,0
		c0,0,0.1,0,0.1,0c0,0,0,0,0,0c0.2,0,0.5,0.1,0.7,0.2c0.1,0,0.1,0,0.2,0.1c0,0,0.1,0,0.1,0c0,0,0,0,0,0c0,0,0,0,0,0
		c0.1,0,0.1,0.1,0.2,0.1c0.1,0.1,0.3,0.2,0.4,0.2c0.8,0.3,1.6,0,2.4-0.2c0.1,0,0.3-0.1,0.4-0.1v-0.8c-0.1,0-0.2,0-0.3,0.1
		c-0.3,0.1-0.6,0.1-1,0.2c-0.1,0-0.2,0-0.3,0.1c0,0-0.1,0-0.1,0c0,0,0,0-0.1,0c-0.1,0-0.1,0-0.2,0c-0.1,0-0.3,0-0.4,0
		c0,0-0.1,0-0.1,0c0,0,0,0,0,0c0,0,0,0,0,0c0,0-0.1,0-0.1,0c0,0-0.1,0-0.1,0c0,0,0,0,0,0c-0.1,0-0.1-0.1-0.2-0.1
		c-0.2-0.1-0.4-0.2-0.6-0.3c-0.5-0.2-1-0.3-1.5-0.3c-1,0-2,0.4-2.8,1.1c-0.5,0.5-0.9,1.1-1,1.7c-0.1,0.5-0.2,1.1-0.1,1.7
		c-0.3,0-0.7,0-1.1,0c0-0.9,0.1-1.7,0.4-2.6c0.1-0.2,0.1-0.4,0.3-0.6c0.1-0.1,0.1-0.2,0.2-0.3c0,0,0.1-0.1,0.1-0.1c0,0,0,0,0.1-0.1
		c0,0,0,0,0,0c0.1-0.2,0.3-0.3,0.4-0.5c0,0,0.1-0.1,0.1-0.1c0,0,0,0,0.1,0c0,0-0.1,0,0,0c0.1-0.1,0.2-0.1,0.3-0.2
		c0.2-0.1,0.4-0.2,0.6-0.3c0,0,0.1,0,0.1-0.1c0,0,0.1,0,0.1,0c0.1,0,0.2-0.1,0.3-0.1c0.4-0.1,0.8-0.2,1.3-0.3
		c0.5-0.1,0.9-0.2,1.3-0.5c0.3-0.3,0.6-0.7,0.9-0.9c0.1-0.1,0.1-0.1,0.2-0.2c0.1-0.1,0.2-0.1,0.3-0.2c0.1-0.1,0.2-0.1,0.3-0.2
		c0,0,0,0,0.1,0c0,0,0,0,0,0c0,0,0,0,0,0c0.1,0,0.1,0,0.2-0.1c0.4-0.1,0.8-0.3,1.2-0.4l0.1,0c0.7-0.1,1.5-0.2,2.3-0.2
		c1.5,0.1,3.1,0.4,4.5,0.8c1.3,0.3,2.7,0.6,4.1,0.7c0.1,0,0.3,0,0.4,0c1.5,0,3-0.6,4-1.5c-0.2-0.2-0.4-0.3-0.6-0.5
		c-0.9,0.7-2.3,1.2-3.3,1.2v-2.8c0-0.1,0-0.2-0.1-0.3l-0.6-0.4v-1.5c0-0.2-0.1-0.3-0.3-0.3h-1c-0.2,0-0.3,0.1-0.3,0.3V15l-0.9-0.6
		c-0.1-0.1-0.3-0.1-0.4,0l-1.2,0.9v-0.8c0-0.1,0-0.2-0.1-0.3l-0.6-0.4v-1.5c0-0.2-0.1-0.3-0.3-0.3h-1c-0.2,0-0.3,0.1-0.3,0.3v0.4
		l-0.9-0.6c-0.1-0.1-0.3-0.1-0.4,0l-3.1,2.2c-0.1,0-0.1,0.1-0.1,0.2c-2.3,0.8-4.2,1-5.9,0.5c-2.1-0.6-4-1.9-5.6-3.2l-0.1-0.1
		c-1.5-1.2-2.9-2.3-4.6-3.1c-0.2,0.2-0.4,0.4-0.7,0.6l0,0c1.7,0.8,3.2,1.9,4.7,3c1.8,1.4,3.7,2.8,6,3.5c1.8,0.6,3.9,0.4,6.3-0.4v2.2
		l0.6-0.2v-2.6l2.8-2l1.2,0.8c0.1,0.1,0.2,0.1,0.3,0c0.1-0.1,0.2-0.2,0.2-0.3v-0.7h0.3v1.4c0,0.1,0,0.2,0.1,0.3l0.6,0.4v1.1
		l-1.2,0.9c-0.1,0.1-0.1,0.2-0.1,0.3v1.5c-1.5-0.3-3.1-0.4-4.6-0.1c0,0-0.1,0-0.1,0c-0.5,0.1-1.1,0.3-1.6,0.5
		c-2.3,0.7-4.7,0.4-6.9-0.6c-2.3-1-4.1-2.8-6.1-4.2c-2.2-1.6-4.7-3.1-7.5-3.2c-1.9-0.1-3.9,0.1-5.8,0.1v0.8c1.8,0,3.6-0.1,5.4-0.1
		c1.1,0,2.1,0.1,3.1,0.5c1.6,0.6,3.1,1.6,4.5,2.6c1.6,1.1,3.1,2.5,4.8,3.5c-1.2-0.1-2.5-0.1-3.7,0.1c-1.7,0.2-3.3,0.6-4.7,1.4
		c-0.8,0.4-1.5,1-2.2,1.6l0.6,0.6c0.1-0.1,0.3-0.3,0.4-0.4c0.1-0.1,0.1-0.1,0.2-0.2c0,0,0.1-0.1,0.1-0.1c0,0,0,0,0,0
		c0,0,0.1,0,0.1,0c0.3-0.2,0.6-0.4,0.9-0.6c0.3-0.2,0.7-0.4,1-0.5c0,0,0.1,0,0.1-0.1c0,0,0.1,0,0.1,0c0.1,0,0.2-0.1,0.3-0.1
		c0.2-0.1,0.4-0.1,0.5-0.2c1.6-0.5,3.3-0.7,5-0.7c1,0,2,0.1,3.1,0.2c0,0,0,0,0.1,0c1.6,0.6,3.3,0.9,5,0.8c-0.1,0.1-0.2,0.2-0.3,0.3
		c-0.1,0.1-0.2,0.2-0.2,0.2c0,0,0,0,0,0c0,0,0,0-0.1,0c-0.1,0-0.1,0.1-0.2,0.1c0,0,0,0,0,0c0,0,0,0,0,0c-0.1,0-0.1,0-0.2,0.1
		c-0.1,0-0.2,0.1-0.3,0.1c-0.4,0.1-0.9,0.1-1.3,0.3c-0.4,0.1-0.9,0.3-1.3,0.5c-0.8,0.5-1.5,1.2-1.9,2.2c-0.4,1-0.5,2.1-0.6,3.2
		c-0.2,0-0.3,0-0.3,0c-0.3,0-0.6,0.1-0.9,0.1c0,0,0.3,1.1,0.3,1.1c0.1,0.3,0.1,0.7,0.1,1c0,0.7-0.2,1.3-0.5,1.9
		c-0.2,0.3-0.4,0.7-0.7,1c-0.1,0.2-0.3,0.3-0.5,0.5c-0.1,0-0.1,0-0.2,0c-0.1,0-0.2,0-0.3,0c-0.2,0-0.5,0-0.7,0c-0.2,0-0.3,0-0.5,0
		c-0.2,0-0.3,0-0.5,0.1V31h0.9c0.1,0,0.6-0.1,0.8-0.2c0.1-0.1,0.3-0.3,0.3-0.3c0.4-0.4,0.6-0.9,0.6-1.4c0-0.2-0.1-0.3-0.3-0.3h-1.1
		c-0.4,0-0.9,0.1-1.2,0.4v-0.7c0.3,0.1,0.6,0.1,0.9-0.1c0.3-0.1,0.5-0.4,0.6-0.7c0.4,0.1,0.8,0,1.1-0.3c0.3-0.3,0.4-0.7,0.3-1.1
		c0.4-0.1,0.7-0.4,0.8-0.8c0.1-0.4,0-0.8-0.3-1.1c0.3-0.3,0.4-0.7,0.3-1.1c-0.1-0.4-0.4-0.7-0.8-0.8c0.1-0.4,0-0.8-0.3-1.1
		c-0.3-0.3-0.7-0.4-1.1-0.3c-0.1-0.4-0.4-0.7-0.8-0.8c-0.4-0.1-0.8,0-1.1,0.3c-0.3-0.3-0.7-0.4-1.1-0.3c-0.4,0.1-0.7,0.4-0.8,0.8
		c-0.4-0.1-0.8,0-1.1,0.3c-0.3,0.3-0.4,0.7-0.3,1.1c-0.4,0.1-0.7,0.4-0.8,0.8c-0.1,0.4,0,0.8,0.3,1.1c-0.3,0.3-0.4,0.7-0.3,1.1
		c0.1,0.4,0.4,0.7,0.8,0.8c-0.1,0.4,0,0.8,0.3,1.1c0.3,0.3,0.7,0.4,1.1,0.3c0.1,0.3,0.3,0.6,0.6,0.7c0.3,0.1,0.6,0.1,0.9,0v0.7
		c-0.3-0.3-0.8-0.4-1.2-0.4h-1.1c-0.2,0-0.3,0.1-0.3,0.3c0,0.5,0.2,1,0.6,1.4c0,0,0.3,0.4,0.7,0.5c0.3,0.1,1,0,1.3,0v1.8
		c-1.6,0.3-3.2,0.8-4.6,1.6c0-0.1,0-0.1,0-0.1v0c0,0,0-0.1,0-0.3c0.2-0.1,0.3-0.1,0.5-0.2c0.4-0.2,0.9-0.4,1-0.4
		c0.2-0.1,0.4-0.2,0.5-0.4l0,0c0.1-0.2,0.1-0.4,0.1-0.6l0,0c0,0,0-0.1,0-0.2l0,0c0,0,0-0.1,0-0.1c0-0.1,0-0.2-0.1-0.3
		c0-0.1-0.1-0.3-0.1-0.3c0,0,0-0.1,0-0.1l-0.1-0.2l0,0c-0.1-0.2-0.2-0.3-0.3-0.4c0,0-0.1-0.1-0.1-0.1l0,0c0,0-0.1,0-0.1,0
		c0,0,0,0,0,0c-0.2-0.1-0.4-0.1-0.5-0.1c-0.2,0-0.6,0.1-1.1,0.1c-0.2,0-0.3,0.1-0.5,0.1c0-0.1-0.1-0.1-0.1-0.1c0,0-0.1-0.1-0.1-0.1
		c0,0,0,0,0,0l0,0c0,0-0.1-0.1-0.2-0.2c0.1-0.1,0.2-0.3,0.3-0.4c0.3-0.4,0.5-0.8,0.6-1c0.1-0.2,0.2-0.4,0.2-0.6l0,0
		c0-0.2-0.1-0.4-0.3-0.6l0,0c0,0-0.1-0.1-0.2-0.1l0,0c0,0-0.1,0-0.1-0.1C60,27,59.9,27,59.8,26.9l-0.5-0.4l0,0
		c-0.2-0.1-0.5-0.2-0.8-0.2c-0.2,0-0.4,0.1-0.5,0.3c-0.1,0.1-0.5,0.4-0.8,0.8c-0.1,0.1-0.2,0.2-0.4,0.4c-0.1,0-0.1,0-0.2-0.1
		c-0.1,0-0.1,0-0.1-0.1l-0.2-0.1c0,0-0.1,0-0.1,0l-0.1,0c0-0.2,0-0.3,0-0.5c0-0.2,0-0.5-0.1-0.8l0-0.3c0-0.2,0-0.4-0.2-0.5
		c-0.1-0.2-0.4-0.4-0.7-0.4c-0.1,0-0.2,0-0.3,0l-0.1,0c-0.1,0-0.3,0-0.4,0c-0.2,0-0.4,0-0.5,0l-0.2,0c-0.3,0-0.5,0.1-0.7,0.3
		c-0.1,0.1-0.2,0.3-0.2,0.5c0,0.1,0,0.2-0.1,0.3c0,0.2-0.1,0.5-0.1,0.8c0,0.2,0,0.4-0.1,0.5c0,0,0,0,0,0c0,0-0.1,0-0.1,0l-0.2,0
		c-0.1,0-0.1,0-0.2,0.1c0,0-0.1,0-0.1,0c-0.1-0.1-0.2-0.3-0.3-0.4c-0.3-0.4-0.6-0.7-0.7-0.8c-0.1-0.2-0.3-0.3-0.5-0.3
		c-0.3-0.1-0.5,0-0.8,0.1l-0.6,0.3l-0.6,0.4c-0.1,0-0.1,0.1-0.2,0.2v1.3c0.1,0.2,0.2,0.5,0.4,0.8c0.1,0.1,0.2,0.3,0.2,0.5
		c0,0-0.1,0.1-0.1,0.1c-0.1,0.1-0.1,0.1-0.1,0.2l0,0l-0.1,0.1c0,0,0,0-0.1,0.1l0,0c0,0,0,0,0,0c-0.1,0-0.1,0-0.2-0.1v1.2
		c0.1,0,0.2,0.1,0.2,0.1l0.4,0.1l0.3-0.5c0-0.1,0.1-0.1,0.2-0.2c0,0,0.1-0.1,0.1-0.1l0.1-0.1c0,0,0,0,0,0c0,0,0,0,0-0.1l0,0
		c0.1-0.1,0.2-0.2,0.3-0.3l0.4-0.4l-0.2-0.3l0-0.1c0,0,0,0,0-0.1c-0.1-0.2-0.2-0.4-0.4-0.6c-0.2-0.3-0.3-0.7-0.4-0.9l0.4-0.3
		l0.4-0.3c0.1,0.1,0.4,0.4,0.6,0.7c0.2,0.2,0.4,0.5,0.4,0.6l0,0c0,0,0,0.1,0.1,0.1l0.2,0.4l0.4-0.1c0,0,0,0,0.1,0l0,0
		c0.2-0.1,0.3-0.1,0.4-0.1l0,0c0,0,0.1,0,0.1,0l0.2,0c0,0,0.1,0,0.1,0l0,0c0.1,0,0.2,0,0.3-0.1l0.5-0.1l0-0.5c0-0.1,0-0.5,0.1-0.9
		c0-0.2,0.1-0.5,0.1-0.7c0-0.1,0-0.2,0-0.2l0.1,0c0.1,0,0.3,0,0.4,0c0.1,0,0.3,0,0.4,0l0,0c0,0,0,0,0.1,0l0,0.2c0,0.3,0,0.5,0.1,0.7
		c0,0.4,0,0.7,0,0.9l0,0.4l0.6,0.2c0,0,0.1,0,0.1,0l0.1,0c0,0,0.1,0,0.1,0l0.2,0.1c0,0,0.1,0,0.2,0.1c0,0,0.1,0.1,0.2,0.1
		c0.1,0,0.1,0.1,0.2,0.1c0,0,0,0,0.1,0l0.4,0.2l0.3-0.4c0,0,0-0.1,0.1-0.1c0.1-0.2,0.3-0.4,0.5-0.5c0.3-0.3,0.6-0.5,0.7-0.7l0.4,0.3
		c0.1,0,0.1,0.1,0.2,0.2c0,0,0.1,0.1,0.1,0.1c0,0,0,0,0.1,0.1c-0.1,0.2-0.3,0.5-0.5,0.8c-0.2,0.3-0.4,0.5-0.5,0.7L58.2,30l0.3,0.3
		c0,0,0,0,0,0l0,0c0.1,0.2,0.2,0.3,0.3,0.4l0,0c0,0,0,0,0,0c0,0,0,0,0,0l0,0c0,0,0,0,0,0c0,0.1,0.1,0.2,0.2,0.4c0,0,0,0,0,0.1
		c0,0,0,0,0,0c0,0,0,0,0,0l0.2,0.4l0.4-0.1c0.2,0,0.5-0.1,0.9-0.2c0.4-0.1,0.8-0.1,1-0.1c0,0,0,0,0,0.1l0.1,0.4
		c0,0.2,0.1,0.3,0.1,0.4c0,0,0,0,0,0.1c-0.2,0.1-0.5,0.2-0.9,0.4c-0.3,0.1-0.6,0.2-0.8,0.3l-0.4,0.1l0,0.4c0,0,0,0,0,0.1l0,0
		c0,0.2,0,0.4,0,0.5h0c0,0,0,0.2-0.1,0.6l0,0c0,0,0,0,0,0.1l0,0.3c-0.3,0.2-0.6,0.4-0.9,0.7c0,0-0.8,0.5-1.7,0.8
		c-2.3-0.4-5.5-0.4-8,0.4l0.1,0c-0.1-0.1-0.1-0.2-0.2-0.4l0,0c0,0,0-0.1,0-0.1l-0.2-0.4l-0.4,0.1v2.2C51.2,37,55.4,37.1,57.9,37.8
		 M87.7,27.6l0,3.9c-0.6-0.2-1.2-0.3-1.7-0.4l0-3.5L87.7,27.6z M82.8,30.9c-0.3,0-0.7,0-1,0l0-1.3c0-0.4,0.3-0.7,0.7-0.7
		c0.4,0,0.7,0.3,0.7,0.7l0,1.3C83.1,30.9,83,30.9,82.8,30.9 M84.7,22.7l0,0.5l-1.7,0l0-0.5L84.7,22.7z M82.5,25.1l2.6,1.7l0,4.2
		c-0.2,0-0.5,0-0.7-0.1c-0.2,0-0.4,0-0.7,0l0-1.3c0-0.7-0.6-1.2-1.2-1.2c-0.7,0-1.2,0.6-1.2,1.2l0,1.3c0,0-0.1,0-0.1,0
		c-0.4,0-0.8,0.1-1.2,0.1l0-4.3L82.5,25.1z M79.1,27.6l0,3.6c0,0-0.1,0-0.1,0c-0.6,0.1-1.1,0.3-1.6,0.4l0-4L79.1,27.6z M85.9,17.1
		l2.8-2l1.2,0.8c0.1,0.1,0.2,0.1,0.3,0c0.1-0.1,0.2-0.2,0.2-0.3V15h0.3v1.4c0,0.1,0,0.2,0.1,0.3l0.6,0.4v2.5
		c-1.3-0.1-2.6-0.4-3.8-0.7c-0.5-0.1-1.1-0.3-1.7-0.4V17.1z M64.7,37.9c-0.3-0.2-0.6-0.4-1-0.6c0.2-0.2,0.4-0.3,0.6-0.5
		c1.9-1.3,5.7-2.5,8.3-2.8c0.1,0,0.2,0,0.3,0.1c0.4,0.1,0.8,0.2,1.2,0.3c0,0,0.1,0,0.1,0c-2.9,0.3-6.8,1.6-8.8,2.9
		c-0.2,0.1-0.4,0.3-0.6,0.4C64.9,37.8,64.8,37.8,64.7,37.9 M76.1,35.2c0.4,0.2,0.9,0.5,1.2,0.7c-2.9-0.1-7.7,1.2-10.1,2.6
		c-0.2,0.1-0.4,0.3-0.6,0.4c0,0-0.2,0.2-0.4,0.3c-0.3-0.2-0.5-0.5-0.8-0.7c0,0,0,0,0,0c0.2-0.2,0.4-0.3,0.7-0.5
		C68.3,36.6,73.3,35,76.1,35.2 M70.1,32.1c0.2-0.3,0.4-0.6,0.5-1c0.3-0.6,0.4-1.3,0.4-2c0-0.4,0-0.8-0.1-1.2
		c0.7-0.1,1.4-0.1,2.1-0.1c0.2,0,0.3,0,0.5,0c-0.1,0.4-0.2,0.8-0.2,1.2c0,0.5,0.1,1.1,0.2,1.6c0.1,0.3,0.2,0.6,0.4,1
		c0,0.1,0.1,0.1,0.1,0.2c0.2,0.3,0.4,0.7,0.6,1c-0.2,0.1-0.4,0.3-0.6,0.4c0,0,0,0-0.1,0c-0.1,0-0.2-0.1-0.4-0.1
		c-0.6-0.2-1.3-0.3-1.9-0.4c-0.4-0.1-0.8-0.1-1.2-0.1c-0.2,0-0.5,0-0.7,0C69.9,32.4,70,32.3,70.1,32.1 M67.5,29.4h0.7
		c-0.1,0.6-0.7,1-1.3,1h-0.7v-0.2C66.5,29.8,67,29.4,67.5,29.4 M67,27.6c0,0.1-0.1,0.2-0.3,0.2l0,0c-0.1,0-0.3,0-0.4-0.1
		c-0.1-0.1-0.2-0.2-0.2-0.3v-0.7c0.2,0,0.3-0.1,0.4-0.1l0.3,0.6C67.1,27.4,67.1,27.5,67,27.6 M68.3,27L68.3,27
		c-0.1,0.1-0.2,0.1-0.4,0.1c-0.1,0-0.2-0.1-0.3-0.2l-0.3-0.6c0.1-0.1,0.2-0.2,0.3-0.3l0.6,0.3c0.1,0.1,0.2,0.2,0.2,0.3
		C68.5,26.7,68.4,26.9,68.3,27 M69.2,25.4L69.2,25.4c0,0.1-0.1,0.2-0.2,0.3c-0.1,0-0.2,0-0.4,0L68,25.3c0.1-0.1,0.1-0.3,0.1-0.4h0.7
		c0.1,0,0.2,0.1,0.3,0.2C69.2,25.1,69.3,25.3,69.2,25.4 M68.6,23.3L68.6,23.3c0.1-0.1,0.3-0.1,0.4,0c0.1,0,0.2,0.1,0.2,0.3l0,0
		c0,0.1,0,0.3-0.1,0.4c-0.1,0.1-0.2,0.2-0.3,0.2h-0.7c0-0.2-0.1-0.3-0.1-0.4L68.6,23.3L68.6,23.3z M67.7,22.1
		c0.1-0.1,0.2-0.2,0.3-0.2c0.1,0,0.3,0,0.3,0.1l0,0c0.1,0.1,0.1,0.2,0.1,0.3c0,0.1-0.1,0.2-0.2,0.3L67.6,23
		c-0.1-0.1-0.2-0.2-0.3-0.3L67.7,22.1z M66.2,21.5c0-0.1,0.1-0.2,0.2-0.3c0.1-0.1,0.2-0.1,0.4-0.1l0,0c0.1,0,0.2,0.1,0.3,0.2
		c0,0.1,0,0.3,0,0.4l-0.3,0.6c-0.1-0.1-0.3-0.1-0.4-0.1V21.5z M64.7,21.4c0-0.1,0.1-0.2,0.3-0.2l0,0c0.1,0,0.3,0,0.4,0.1
		c0.1,0.1,0.2,0.2,0.2,0.3v0.7c-0.1,0-0.3,0.1-0.4,0.1l-0.3-0.6C64.6,21.6,64.6,21.5,64.7,21.4 M63.4,22L63.4,22
		c0.1-0.1,0.2-0.1,0.4-0.1c0.1,0,0.2,0.1,0.3,0.2l0.3,0.6c-0.1,0.1-0.2,0.2-0.3,0.3l-0.6-0.3c-0.1-0.1-0.2-0.2-0.2-0.3
		C63.3,22.3,63.3,22.1,63.4,22 M62.5,23.6L62.5,23.6c0-0.1,0.1-0.2,0.2-0.3c0.1,0,0.3,0,0.4,0l0.6,0.3c-0.1,0.1-0.1,0.3-0.1,0.4
		h-0.7c-0.1,0-0.2-0.1-0.3-0.2C62.5,23.9,62.5,23.7,62.5,23.6 M63.1,25.7c-0.1,0.1-0.2,0.1-0.4,0c-0.1,0-0.2-0.1-0.2-0.3l0,0
		c0-0.1,0-0.3,0.1-0.4c0.1-0.1,0.2-0.2,0.3-0.2h0.7c0,0.2,0.1,0.3,0.1,0.4L63.1,25.7L63.1,25.7z M64.1,26.9
		c-0.1,0.1-0.2,0.2-0.3,0.2c-0.1,0-0.3,0-0.3-0.1l0,0c-0.1-0.1-0.1-0.2-0.1-0.3c0-0.1,0.1-0.2,0.2-0.3l0.6-0.3
		c0.1,0.1,0.2,0.2,0.3,0.3L64.1,26.9z M64.3,24.5c0-0.9,0.7-1.6,1.6-1.6c0.9,0,1.6,0.7,1.6,1.6c0,0.9-0.7,1.6-1.6,1.6
		C65,26.1,64.3,25.4,64.3,24.5 M65.3,27.8c-0.1,0.1-0.2,0.1-0.4,0.1l0,0c-0.1,0-0.2-0.1-0.3-0.2c0-0.1,0-0.3,0-0.4l0.3-0.6
		c0.1,0.1,0.3,0.1,0.4,0.1v0.7C65.5,27.6,65.4,27.7,65.3,27.8 M64.8,30.4c-0.6,0-1.1-0.4-1.3-1h0.7c0.6,0,1.1,0.4,1.2,0.9v0.1H64.8z
		 M61.8,35.1c1.3-0.7,2.8-1.1,4.4-1.4c0.4-0.1,0.7-0.1,1.1-0.1c0,0,0.1,0,0.1,0c0.3,0,1,0,1.4,0c0.2,0,0.4,0,0.4,0
		c0.2,0,0.4,0,0.5,0c-2.3,0.6-4.7,1.6-6.1,2.6c-0.2,0.2-0.4,0.3-0.6,0.5c0,0-0.1,0.1-0.1,0.1c-0.7-0.4-1.5-0.8-2.2-1
		C61,35.5,61.4,35.3,61.8,35.1"/>
	<path class="st1" d="M56.9,72.8l-0.4,0.6c-0.4-0.1-0.9-0.4-1.2-0.6l0.6-0.8l0.4-0.5c-0.1,0-0.4-0.3-0.5-0.4c-1.3-1.1-4-2.6-5.9-2.8
		c0,0,0,0,0,0c-0.2,0-1.2-0.1-1.4-0.1l0,1.1l0,0.4v0.7l0-0.1c0.3,0,0.6,0.1,0.9,0.1c2,0.4,3.9,1.4,5,2.6c0,0,0.2,0.2,0.2,0.2
		c0.4,0.4,1.1,0.7,1.8,0.9c-0.2,0.8-0.4,1.1-0.8,1.5c-0.1-0.2-0.3-0.3-0.5-0.4c-0.5-0.3-1.1-0.5-1.6-0.4c0,0-0.9,0-1.4-0.2
		c-0.6-0.2-1.1-0.7-1.6-1.2c-0.3-0.3-0.4-0.7-0.8-1c-0.4-0.3-0.9-0.5-1.3-0.5v0.6c0.3,0,0.6,0.1,0.9,0.3c0.2,0.1,0.7,0.9,1,1.2
		c0,0,0.8,0.8,1.3,1c0.6,0.2,1.7,0.5,2,0.4c0,0,0,0,0,0l0,0c0,0,0.1,0,0.1,0l0,0c0.4,0,0.7,0,1.1,0.2c0.1,0,0.2,0.2,0.4,0.4
		c0,0,0,0,0,0l0.3,0.5c0,0,0.1,0,0.1-0.1c0,0,0,0,0,0l0,0c0,0,0.1-0.1,0.1-0.1c0.1-0.1,0.3-0.2,0.4-0.3c0,0,0,0-0.1-0.1
		c0.5-0.5,0.9-1.2,1-1.9c0,0,0-0.2,0-0.2c0-0.1,0.1-0.4,0.1-0.4c-0.1,0-0.2,0-0.3,0l0.3-0.4l0.3-0.3l0.3-0.4l-1.5-0.3L56.9,72.8z
		 M49.5,69.6c-0.2,0-0.5-0.1-0.7-0.1l0.6-0.8c0.1,0,0.2,0,0.3,0c0.3,0,0.6,0.1,0.9,0.2L50,69.7C49.8,69.7,49.6,69.7,49.5,69.6
		 M50.5,69.9l0.7-0.8c0.5,0.2,0.9,0.4,1.4,0.6L52,70.4C51.5,70.2,51,70,50.5,69.9 M52.4,70.7l0.6-0.8c0.3,0.2,0.6,0.4,0.9,0.5
		l-0.6,0.8C53.1,71,52.8,70.9,52.4,70.7 M53.8,71.5l0.6-0.8c0.4,0.2,0.7,0.5,0.9,0.7l-0.7,0.9C54.4,72,54.1,71.8,53.8,71.5"/>
	<path class="st1" d="M54.9,63.5c1.5,0.2,2.7,1,3.3,1.6l0.4-0.8c-0.7-0.6-1.6-1.4-3.3-1.6L54.9,63.5z"/>
	<path class="st1" d="M53.1,66.7c1.5,0.2,2.7,1.1,3.3,1.6l0.4-0.8c-0.7-0.6-1.6-1.4-3.3-1.7L53.1,66.7z"/>
	<path class="st1" d="M54,65c1.5,0.2,2.7,1.1,3.3,1.6l0.4-0.8c-0.7-0.6-1.6-1.4-3.3-1.6L54,65z"/>
	<path class="st1" d="M52.6,63.2c-0.4-0.3-1.2-0.8-2-1.2c0,0,0,0,0,0c0.1-0.1,0.3-0.4,0.2-0.5c-0.1-0.1-0.3,0-0.5,0.1
		c0-0.2-0.1-0.4-0.2-0.4c-0.1,0-0.3,0.4-0.3,0.5c0,0,0,0,0,0c-0.5-0.2-1-0.3-1.4-0.3l0,0.5v0.5c1.5,0.2,3.2,1.1,3.8,1.6L52.6,63.2z"
		/>
	<path class="st1" d="M48.4,64.4c0,0,0.1,0,0.1,0c1.2,0.4,2.2,1,2.7,1.5l0.4-0.8c-0.6-0.5-1.9-1.2-3.3-1.6
		C48.3,63.6,48.4,64.2,48.4,64.4"/>
	<path class="st1" d="M53.7,61.3c-0.1,0-0.1,0-0.1-0.1c-0.2-0.1-0.3-0.2-0.5-0.3c0.1,0,0.2-0.1,0.2-0.1c0.1-0.1,0.4-0.4,0.2-0.5
		c-0.1-0.1-0.4,0-0.5,0.1c0-0.2-0.1-0.4-0.2-0.4c-0.1,0-0.3,0.4-0.3,0.5c0,0.1,0,0.1,0,0.2c-0.9-0.4-1.8-0.7-2.8-0.9
		c0.1,0,0.1-0.1,0.1-0.2c0-0.1,0.1-0.6,0-0.6c-0.1,0-0.3,0.2-0.4,0.4C49.3,59.2,49.1,59,49,59c-0.1,0-0.1,0.5,0,0.6c0,0,0,0,0,0.1
		c-0.2,0-0.4-0.1-0.6-0.1v0.9c1.8,0.3,3.5,0.9,4.8,1.7L53.7,61.3z"/>
	<path class="st1" d="M54.9,76.4c-0.2-0.2-0.3-0.4-0.5-0.5c-0.5-0.3-1.1-0.5-1.6-0.4c0,0-0.9,0-1.4-0.2c-0.6-0.2-1.1-0.7-1.6-1.2
		c-0.3-0.3-0.4-0.7-0.8-1c-0.2-0.1-0.4-0.3-0.6-0.3v0.6c0.1,0,0.1,0.1,0.2,0.1c0.2,0.1,0.7,0.9,1,1.2c0,0,0.8,0.8,1.3,1
		c0.6,0.2,1.7,0.5,2,0.4c0,0,0,0,0,0v0c0,0,0.1,0,0.1,0l0,0c0.4,0,0.7,0,1.1,0.2c0.1,0,0.2,0.2,0.4,0.4c0,0,0,0,0,0l0.3,0.5
		c0,0,0.1,0,0.1-0.1c0.2-0.1,0.4-0.2,0.5-0.3c0,0-0.1-0.1-0.1-0.1C55.1,76.7,55,76.5,54.9,76.4"/>
	<path class="st1" d="M60.6,50.8c0-0.2-0.2-0.4-0.4-0.4c-0.2,0-0.4,0.2-0.4,0.4c0,0.2,0.2,0.4,0.4,0.4
		C60.4,51.3,60.6,51.1,60.6,50.8"/>
	<path class="st1" d="M58.9,50.7c0.2,0,0.4-0.2,0.4-0.4c0-0.2-0.2-0.4-0.4-0.4c-0.2,0-0.4,0.2-0.4,0.4
		C58.5,50.5,58.7,50.7,58.9,50.7"/>
	<rect x="65" y="49.4" transform="matrix(0.4786 -0.878 0.878 0.4786 -9.1398 84.1165)" class="st1" width="2.5" height="0.6"/>
	<rect x="66.4" y="50.2" transform="matrix(0.4786 -0.878 0.878 0.4786 -9.081 85.7145)" class="st1" width="2.5" height="0.6"/>
	<rect x="67.8" y="50.9" transform="matrix(0.4786 -0.878 0.878 0.4786 -9.0221 87.3128)" class="st1" width="2.5" height="0.6"/>
	<path class="st1" d="M75.6,56.6c-0.3-0.1-0.7-0.1-1-0.1c-0.6,0.1-1.2,0.3-1.8,0.4c-0.4,0.1-0.8,0.2-1.2,0.4
		c-0.4,0.1-0.7,0.2-1.1,0.2c-0.1,0-0.2,0-0.3,0c0,0-0.1,0-0.1,0c0,0,0,0,0,0c0,0,0,0,0,0c-0.2,0-0.4-0.1-0.6-0.1
		c-0.4-0.1-0.7-0.2-1-0.4c-0.3-0.2-0.7-0.4-1-0.6c-0.3-0.2-0.6-0.5-1-0.6c-0.4-0.2-0.8-0.3-1.3-0.3c-0.4,0-0.9,0.1-1.3,0.2
		c-0.3,0.1-0.7,0.2-1,0.3c-0.1,0-0.3,0.1-0.4,0.1c-0.1,0-0.1,0-0.2,0c0,0-0.1,0-0.1,0c0,0,0,0,0,0c0,0,0,0,0,0c-0.3,0-0.5,0-0.8,0
		c-0.1,0-0.3,0-0.4,0c0,0,0,0,0,0c0,0,0,0,0,0c0,0-0.1,0-0.1,0c-0.1,0-0.1,0-0.2,0c-0.3-0.1-0.6-0.2-0.9-0.3c0,0-0.1,0-0.1,0
		c0,0-0.1,0-0.1,0c-0.1,0-0.2-0.1-0.3-0.1c-0.2-0.1-0.3-0.2-0.5-0.3c-0.1-0.1-0.2-0.1-0.3-0.2c0,0,0,0,0,0c0,0,0,0,0,0
		c-0.1,0-0.1-0.1-0.2-0.1c-1.4-1.1-3-2-4.7-2.5c-1.3-0.4-2.8-0.7-4.2-0.8c-0.3,0-0.6,0-0.8,0v0.8c0.2,0,0.4,0,0.6,0
		c0.3,0,0.6,0,0.8,0.1c0.2,0,0.3,0,0.5,0.1c0,0,0.1,0,0.1,0c-0.1,0,0,0,0,0c0.1,0,0.2,0,0.3,0c0.7,0.1,1.4,0.3,2.1,0.5
		c0.4,0.1,0.8,0.2,1.1,0.4c0.1,0,0.2,0.1,0.3,0.1c0,0,0.1,0,0.1,0c0,0,0,0,0,0c0,0,0.1,0,0.1,0c0.2,0.1,0.4,0.2,0.6,0.3
		c0.4,0.2,0.9,0.5,1.3,0.7c0.5,0.3,0.8,0.6,1.2,0.9c0,0,0,0,0,0c0,0,0,0,0,0c-0.3,0.3-0.6,0.6-0.9,0.9c-0.3-0.2-0.7-0.4-1.1-0.5
		c0.1,0,0.2,0,0.3-0.1c0.1-0.1,0.4-0.4,0.2-0.5c-0.1-0.1-0.4,0-0.5,0.1c0-0.2-0.1-0.4-0.2-0.4c-0.1,0-0.3,0.4-0.3,0.5
		c0,0.1,0,0.2,0,0.2c-0.9-0.4-1.9-0.7-2.9-0.9c0,0,0.1-0.1,0.1-0.1c0.1-0.1,0.3-0.5,0.1-0.6c-0.1-0.1-0.3,0.1-0.5,0.2
		c-0.1-0.2-0.2-0.3-0.3-0.4c-0.1,0-0.2,0.4-0.2,0.5c0,0.1,0,0.1,0,0.2c-0.6-0.1-1.3-0.2-2-0.3c0,0,0-0.1,0.1-0.1
		c0-0.1,0.1-0.6,0-0.6c-0.1,0-0.3,0.2-0.4,0.4c-0.1-0.2-0.3-0.4-0.4-0.4c-0.1,0-0.1,0.5,0,0.6c0,0,0,0.1,0,0.1c0,0-0.1,0-0.1,0
		c-0.1,0-0.3,0-0.4,0l0,1.1l0.1,0c0.1,0,0.2,0,0.3,0c2.6,0.1,5.1,0.7,7.2,1.8c-0.2,0.3-0.4,0.7-0.6,1c-0.4-0.2-0.7-0.4-1.1-0.5
		c0,0,0.1-0.1,0.1-0.1c0.1-0.1,0.4-0.4,0.2-0.5c-0.1-0.1-0.4,0-0.5,0.1c0-0.2-0.1-0.4-0.2-0.4c-0.1,0-0.3,0.4-0.3,0.5
		c0,0,0,0.1,0,0.1c-0.6-0.2-1.2-0.4-1.9-0.5c0,0,0,0,0,0c0.1-0.1,0.3-0.5,0.1-0.6c-0.1-0.1-0.3,0.1-0.5,0.2
		c-0.1-0.2-0.2-0.3-0.3-0.4c-0.1,0-0.2,0.4-0.2,0.5c0,0,0,0,0,0c-0.4-0.1-0.9-0.1-1.3-0.2c0,0,0-0.1,0.1-0.1c0-0.1,0.1-0.6,0-0.6
		c-0.1,0-0.3,0.2-0.4,0.4c-0.1-0.2-0.3-0.4-0.4-0.4c-0.1,0-0.1,0.5,0,0.6c0,0,0,0.1,0,0.1c-0.1,0-0.3,0-0.3,0l0,1c0.1,0,0.3,0,0.3,0
		c3.8,0.1,7.3,1.7,9.3,4c-1.2-0.5-2.6-1-2.7-1l-0.4-0.1l-3.7,6.5c-0.6-0.5-1.5-1-2.9-1.3c0,0,0,0,0,0.1v0.5c0,0.1,0,0.2,0,0.2
		c1.1,0.3,1.9,0.7,2.6,1.4l0,0l0,0c0,0,0,0,0,0l0,0l0.5,0.2c0,0,2,0.8,2.6,1.1c0.6,0.3,2.2,1.5,2.2,1.5l0.4,0.3l3.9-7.4l-0.3-0.2
		c0,0,0,0-0.3-0.3l-0.1-0.2c-0.5-1-1.2-2-2.2-2.8c0.4-0.6,0.9-1.2,1.4-1.7l0-1.2c-0.9,0.7-1.6,1.4-2.2,2.3c-0.2-0.2-0.5-0.3-0.7-0.5
		c0,0,0.1-0.1,0.1-0.1c0.1-0.2,0.4-0.8,0.5-0.9c0.2-0.3,0.5-0.6,0.8-0.9c0.3-0.3,0.6-0.6,0.9-0.8c0.9,0.5,1.9,0.8,2.9,0.8
		c0.6,0,1.2-0.1,1.7-0.3c0.4-0.1,0.8-0.2,1.2-0.3c0,0,0.1,0,0.1,0c0,0,0,0,0,0c0,0,0.1,0,0.1,0c0.1,0,0.2,0,0.3,0
		c0.2,0,0.3,0,0.5,0.1c0.8,0.2,1.3,0.7,2,1.1c0.7,0.4,1.4,0.8,2.2,0.9c0.4,0.1,0.8,0.1,1.2,0.1c0.4,0,0.8-0.2,1.3-0.3
		c0.4-0.1,0.7-0.2,1.1-0.3c0.3-0.1,0.6-0.2,0.9-0.3c0.2,0,0.3-0.1,0.5-0.1c0,0,0,0,0,0h0c0,0,0,0,0.1,0c0,0,0.1,0,0.1,0
		c0.1,0,0.2,0,0.3,0c0,0,0.1,0,0.1,0h0c0,0,0,0,0,0c0.1,0,0.2,0,0.2,0.1c0,0,0,0,0,0c0,0,0,0,0,0c0,0,0.1,0,0.1,0.1
		c0.1,0,0.1,0.1,0.2,0.1c0,0,0.1,0.1,0.1,0.1c0.5,0,0.9,0,1.4-0.1c-0.3-0.2-0.5-0.3-0.8-0.5C76.1,56.9,75.8,56.7,75.6,56.6
		 M55.5,55.7C55.5,55.7,55.5,55.7,55.5,55.7C55.5,55.7,55.6,55.7,55.5,55.7C55.5,55.7,55.5,55.7,55.5,55.7 M58.7,62.7
		c0.5,0.3,0.9,0.7,1.2,0.9l-3.3,6.3c-0.5-0.4-1.7-1.2-2.2-1.4c-0.4-0.2-1.9-0.8-2.5-1.1l3.5-6.2c0.5,0.2,1.6,0.6,2.4,0.9
		C58,62.2,58.3,62.4,58.7,62.7"/>
	<path class="st1" d="M81.8,55.6c-0.3,0.1-0.6,0.1-0.8,0.2c-0.2,0.1-0.4,0.1-0.6,0.1c0,0,0,0,0,0c0,0,0,0-0.1,0c0,0-0.1,0-0.1,0
		c-0.1,0-0.2,0-0.3,0c0.1,0-0.1,0-0.1,0c-0.1,0-0.1,0-0.2,0c-0.2,0-0.3-0.1-0.5-0.1c-0.3-0.1-0.5-0.2-0.8-0.2
		c-0.1,0-0.3-0.1-0.4-0.2c0,0-0.1,0-0.1,0c0,0,0,0,0,0c0,0,0,0,0,0c-0.1,0-0.1-0.1-0.2-0.1c-0.1-0.1-0.2-0.1-0.4-0.2l0.5-7.4
		c-0.2,0.1-0.4,0.1-0.7,0.1c0,0-0.1,0-0.1,0l-0.2,3.4L76,51l0.8-3.3c-0.3,0-0.5-0.1-0.8-0.2l-0.8,3.3l-0.7-0.2l1.4-3.1
		c-0.3-0.2-0.6-0.4-0.7-0.5L71.7,55c-0.1,0.1-0.1,0.3-0.2,0.4c0,0,0,0,0,0c-0.1,0-0.2,0-0.3,0c-0.2,0-0.3,0-0.5,0
		c-0.1,0-0.1,0-0.2,0c-0.1,0-0.2,0-0.3,0c-0.3-0.1-0.7-0.2-1-0.3c0,0,0,0,0,0c0,0,0,0,0,0c0,0-0.1,0-0.1,0c-0.1,0-0.2-0.1-0.2-0.1
		c-0.2-0.1-0.3-0.2-0.5-0.3c-0.3-0.2-0.6-0.4-0.9-0.6c-0.6-0.4-1.3-0.7-2-0.8c-0.7,0-1.4,0.2-2.1,0.4c-0.2,0.1-0.5,0.1-0.7,0.2
		c-0.1,0-0.1,0-0.2,0c0,0,0,0,0,0c0,0,0,0,0,0c0,0-0.1,0-0.1,0c-0.1,0-0.2,0-0.4,0c-0.3,0-0.5,0-0.8,0c0,0,0,0,0,0c0,0,0,0,0,0
		c0,0-0.1,0-0.1,0c0,0,0,0,0,0c0.9-1.1,1.5-2.4,1.6-3.8c0,0,0-0.3,0-0.3c0-0.1,0-0.3,0-0.4h0v-0.3c-0.2,0-0.5,0-0.7,0
		c-0.4,0-0.9-0.2-1.4-0.4l10.7-5.8l-0.9,1.7c-0.1,0.2,0,0.3,0.1,0.4c0,0,0,0,0,0l0.1,0.1c0.4,0.2,0.5,0.7,0.3,1.1
		c-0.2,0.4-0.7,0.5-1.1,0.3c-0.4-0.2-0.5-0.7-0.3-1.1l-0.5-0.3c-0.2,0.4-0.2,0.8-0.1,1.2l-3,0.5l-0.2-0.1c-0.2-0.1-0.3,0-0.4,0.1
		c0,0,0,0,0,0l-2.1,3.8c-0.1,0.2,0,0.3,0.1,0.4c0,0,0,0,0,0l5.9,3.2c0.2,0.1,0.3,0,0.4-0.1v0l2.1-3.8c0.1-0.2,0-0.3-0.1-0.4
		c0,0,0,0,0,0l-0.5-0.3l-0.8-2.5c0.8,0,1.4-0.7,1.4-1.4c0-0.4-0.2-0.9-0.6-1.1l1.3-2.4l0,0l-0.4-1.3l-13.8,4.9l0,0l0.5-0.9
		c-0.2-0.1-0.3-0.1-0.3-0.1c-0.2-0.1-0.4-0.3-0.6-0.4c-0.6-0.4-1.2-0.7-1.9-1l0.5-1l0.5-0.9l0.6-1l-3.4-0.2l1.9,1.7L55.5,43
		c-1.7-0.6-3.5-1-5.4-1c0,0,0,0,0,0c-0.4,0-0.8,0-1.1,0l-0.6,1.1l0,0v2.4c0.7,0,1.4,0,2.1,0c3.1,0.2,6.1,1.4,8.1,3.2
		c0.1,0.1,0.4,0.3,0.4,0.3c0.7,0.5,1.8,0.9,2.9,1.1c-0.2,1.8-0.6,2.4-1.7,3.5c-0.1-0.1-0.3-0.1-0.5-0.2c-0.4-0.2-0.7-0.4-1-0.6
		c-1.4-1.1-3-2-4.7-2.5c-1.3-0.4-2.8-0.7-4.2-0.8c-0.4,0-0.9,0-1.4,0v0.8c0.4,0,0.8,0,1.1,0c0.3,0,0.6,0,0.8,0.1
		c0.2,0,0.3,0,0.5,0.1c0,0,0.1,0,0.1,0c-0.1,0,0,0,0,0c0.1,0,0.2,0,0.3,0c0.7,0.1,1.4,0.3,2.1,0.5c0.4,0.1,0.8,0.2,1.1,0.4
		c0.1,0,0.2,0.1,0.3,0.1c0,0,0.1,0,0.1,0c0,0,0,0,0,0c0,0,0.1,0,0.1,0c0.2,0.1,0.4,0.2,0.6,0.3c0.4,0.2,0.9,0.5,1.3,0.7
		c0.5,0.3,0.8,0.6,1.2,0.9c0,0,0,0,0,0c0,0,0,0,0.1,0.1c1,0.7,2.2,1.2,3.4,1.3c0.5,0,1,0,1.5-0.1c0.3,0,0.5-0.1,0.8-0.2
		c0.4-0.1,0.7-0.2,1.1-0.3c0.6-0.1,1.3,0,1.8,0.4c0.3,0.2,0.6,0.4,0.8,0.6c0.3,0.2,0.6,0.4,0.9,0.5c0.7,0.3,1.4,0.5,2.1,0.6
		c0.6,0.1,1.2-0.1,1.8-0.2c0.1,0,0.2-0.1,0.4-0.1c0.3-0.1,0.6-0.2,0.9-0.3c0.1,0,0.1,0,0.2-0.1c0,0,0.1,0,0.1,0
		c0.1,0,0.3-0.1,0.4-0.1c0.1,0,0.1,0,0.2,0c0,0,0,0,0.1,0c0,0,0.1,0,0.1,0c0,0,0.1,0,0.1,0c0.1,0,0.3,0,0.4,0c0.1,0,0.2,0,0.3,0
		c0,0,0,0,0,0c0,0,0.1,0,0.1,0c0.2,0,0.4,0.1,0.6,0.2c0,0,0,0,0.1,0c0.1,0.1,0.3,0.1,0.4,0.2c0.1,0,0.1,0.1,0.2,0.1c0,0,0,0,0.1,0
		c0,0,0.1,0,0.1,0c0,0,0,0,0,0c0.2,0.1,0.5,0.2,0.7,0.3c0.5,0.2,1,0.4,1.6,0.5c0.5,0.1,0.9,0.1,1.4,0c0.2-0.1,0.4-0.1,0.7-0.2
		c0.1,0,0.3-0.1,0.4-0.1c0,0,0.1,0,0.2,0c0,0,0.1,0,0.1,0c0.1,0,0.1,0,0.2,0c0,0,0,0,0.1,0c0,0,0.1,0,0.1,0c0.1,0,0.3,0.1,0.4,0.1
		c0.3-0.1,0.7-0.2,1-0.3c-0.3-0.3-0.8-0.5-1.3-0.6C82.3,55.6,82.1,55.6,81.8,55.6 M69.6,47l0.8,2.2L67,47.3L69.6,47z M71.2,50.3
		l-1.8,3.3L64,50.7l1.8-3.3L71.2,50.3z M71,42.2l-4,2.2L65.8,44L71,42.2z M64.8,44.5l1.2,0.4l-1.6,0.9L64.8,44.5z M63.9,44.7
		l-0.4,1.4l-1.8-0.6L63.9,44.7z M57,46.3l-0.1,0c-1.9-1-4.2-1.7-6.3-1.8c-0.6,0-1.2-0.1-1.8,0l0.8-1.5c0.2,0,0.3,0,0.5,0
		c2.8,0,5.5,0.8,7.5,2.2L57,46.3z M59.4,48.1c-0.3-0.1-0.4-0.3-0.4-0.3c-0.4-0.3-0.8-0.6-1.2-0.9l0-0.1l2.2-0.8L59.4,48.1z M60.9,46
		l1.9,0.6L60.2,48L60.9,46z M74.3,54.7c-0.3,0.1-0.7,0.2-1,0.2c-0.3,0.1-0.5,0.2-0.8,0.2l1.7-3.8l0.8,0.2L74.3,54.7z M76.5,54.8
		c-0.4-0.1-0.9-0.2-1.4-0.2l0.7-2.8l0.8,0.2L76.5,54.8z"/>
	<path class="st1" d="M89.9,35.5C89.9,35.4,89.9,35.4,89.9,35.5c-0.1-0.3-0.2-0.5-0.3-0.7c0.1-0.1,0.1-0.2,0.1-0.3
		c0-0.1-0.1-0.2-0.3-0.3c0,0-0.1,0-0.1-0.1c0-0.1,0-0.1-0.1-0.2c-0.2-0.2-0.4-0.4-0.5-0.5c-0.1-0.1-0.2-0.1-0.3,0
		c-0.1,0-0.1,0.1-0.1,0.2c0,0.1,0,0.1,0.1,0.2l0.1,0.1c0.1,0.1,0.2,0.2,0.3,0.3c0,0,0,0,0,0.1c-0.1,0.1-0.1,0.1-0.1,0.2
		c0,0.1,0,0.2,0.1,0.2c0.1,0.1,0.1,0.1,0.2,0.1c0.1,0.2,0.2,0.4,0.2,0.6c0,0,0.1,0.1,0.1,0.1c0.1,0,0.1,0,0.2,0l0.2,0L89.9,35.5z"/>
	<path class="st1" d="M88.3,37.5c0.1,0.1,0.3,0.2,0.4,0.2c0-0.1,0-0.1,0-0.2c0.1-0.4,0.3-0.8,0.6-1.1c0,0,0,0,0-0.1c0,0,0.1,0,0.1,0
		l1.7,0.1c0,0,0.1,0,0.1,0c0,0,0,0,0,0.1c0.2,0.3,0.4,0.7,0.5,1.2c0,0.2,0,0.5,0,0.7l0,0.2c0.3,0,0.5-0.1,0.8-0.1l0-0.1
		c0-0.3,0-0.6,0-0.7c-0.1-0.5-0.3-1-0.6-1.4c-0.1-0.1-0.1-0.2-0.3-0.3c-0.2-0.1-0.3-0.1-0.4-0.1l-1.7-0.1c-0.1,0-0.3,0-0.4,0.1
		c-0.1,0.1-0.2,0.2-0.3,0.2c-0.3,0.4-0.6,0.8-0.7,1.3c0,0,0,0,0,0C88.2,37.4,88.3,37.5,88.3,37.5"/>
</g>
</svg>
